<svg xmlns="http://www.w3.org/2000/svg" width="256" height="256" viewBox="0 0 100 100"><rect width="100" height="100" rx="50" fill="#5a46e7"></rect><path fill="#fff" d="M46.49 31.67L33.62 31.67L33.62 73.56Q33.23 73.71 32.41 73.91Q31.59 74.10 30.73 74.10L30.73 74.10Q27.30 74.10 27.30 71.22L27.30 71.22L27.30 31.67L12.72 31.67Q12.48 31.28 12.25 30.62Q12.01 29.95 12.01 29.10L12.01 29.10Q12.01 27.77 12.64 27.03Q13.26 26.29 14.43 26.29L14.43 26.29L48.21 26.29Q48.44 26.68 48.67 27.34Q48.91 28.00 48.91 28.78L48.91 28.78Q48.91 30.11 48.28 30.89Q47.66 31.67 46.49 31.67L46.49 31.67ZM70.90 69.42L70.90 69.42Q76.13 69.42 78.82 67.04Q81.51 64.66 81.51 60.92L81.51 60.92Q81.51 57.64 79.45 55.62Q77.38 53.59 72.93 52.26L72.93 52.26L66.15 50.23Q61.15 48.75 58.31 45.87Q55.46 42.98 55.46 38.07L55.46 38.07Q55.46 35.10 56.59 32.72Q57.72 30.34 59.83 28.71Q61.93 27.07 64.86 26.17Q67.78 25.27 71.45 25.27L71.45 25.27Q74.57 25.27 77.26 25.78Q79.95 26.29 81.94 27.19Q83.93 28.08 85.02 29.17Q86.11 30.27 86.11 31.44L86.11 31.44Q86.11 32.53 85.57 33.31Q85.02 34.09 84.16 34.56L84.16 34.56Q82.14 33.00 78.90 31.83Q75.66 30.66 71.68 30.66L71.68 30.66Q67.08 30.66 64.47 32.61Q61.86 34.56 61.86 38.07L61.86 38.07Q61.86 40.80 63.73 42.51Q65.60 44.23 69.97 45.48L69.97 45.48L74.73 46.88Q80.89 48.67 84.44 51.91Q87.99 55.15 87.99 60.92L87.99 60.92Q87.99 67.08 83.54 70.90Q79.09 74.73 70.90 74.73L70.90 74.73Q67.32 74.73 64.39 74.10Q61.47 73.48 59.40 72.46Q57.33 71.45 56.20 70.24Q55.07 69.03 55.07 67.86L55.07 67.86Q55.07 66.54 55.89 65.64Q56.71 64.74 57.80 64.35L57.80 64.35Q58.66 65.21 59.91 66.11Q61.15 67.00 62.79 67.75Q64.43 68.49 66.46 68.95Q68.49 69.42 70.90 69.42Z"></path></svg>