<svg xmlns="http://www.w3.org/2000/svg" xmlns:xlink="http://www.w3.org/1999/xlink" viewBox="0 0 462.86 395.7"><defs><style>.cls-1,.cls-12,.cls-18,.cls-2,.cls-22{fill:#fff;}.cls-15,.cls-17,.cls-18,.cls-19,.cls-2,.cls-20,.cls-21,.cls-9{stroke:#263238;}.cls-15,.cls-2,.cls-7{stroke-miterlimit:10;}.cls-3,.cls-9{fill:#92e3a9;}.cls-4{opacity:0.7;}.cls-10,.cls-5,.cls-7{fill:#263238;}.cls-5,.cls-6,.cls-8{opacity:0.2;}.cls-7{stroke:#fff;}.cls-17,.cls-18,.cls-19,.cls-20,.cls-21,.cls-9{stroke-linecap:round;stroke-linejoin:round;}.cls-11{clip-path:url(#clip-path);}.cls-12,.cls-13{opacity:0.5;}.cls-14,.cls-15,.cls-17{fill:none;}.cls-16{clip-path:url(#clip-path-2);}.cls-19{fill:#757575;}.cls-20{fill:#999;}.cls-21{fill:#bfbfbf;}.cls-22{opacity:0.1;}.cls-23{clip-path:url(#clip-path-3);}</style><clipPath id="clip-path"><path class="cls-1" d="M328.81,336.47l.12-44.2c.48-1.79.87-8.35,1.89-12.92,1.74-7.66-5.1-16.89-5.58-17.19-1.92-1.2-6-1.18-6-1.18s-4-4.57-7.57-6A17.69,17.69,0,0,0,304,254a36.51,36.51,0,0,0-9.1-5.52,7.51,7.51,0,0,0-7.66,1.45l-4.47,7a5.19,5.19,0,0,0,.61,6.51c2.14,2.11,4.88,1.13,6.26,1.13,1.91,0,2.63-2.17,2.63-2.17s.47,11.26,0,12.69v0c-.49,1.43-4.07,4.78-4.07,4.78l-12-15.84a114.88,114.88,0,0,1-10.77-17.77,8.56,8.56,0,0,0-1.35-2.1c-2.1-2.37-6.59-3.07-7.76,1.33a8.71,8.71,0,0,0,.19,4.24c5,14.77,11.38,25.94,17.19,37.59,3.45,6.91,2.17,6.82,3.89,9.95-.2.14-.11.39-.32.52-.84,3.36-1.43,6.73-2.28,10.09-.81-4-1.9-8.54-3.83-12.17a27.56,27.56,0,0,0,.53-7.12,9.36,9.36,0,0,0-3-6.31,6,6,0,0,0-3.49-1.36,3.64,3.64,0,0,0-3.84,3.11,37.4,37.4,0,0,1-1,5.42,53.51,53.51,0,0,1-2.77,6.79c0,4.46,2.77,3.73,4.78,21.68,1.56,14,19.56,23.21,29.36,33.3l10.44,32.85a202.3,202.3,0,0,0,34.85-18.3Z"/></clipPath><clipPath id="clip-path-2"><path class="cls-1" d="M218.34,284.42c-.43-2-3.24-1.7-3.24-1.7-9.45.56-10.72,15.37-10.72,15.37L201,308.23,199.94,293l.1-19.67s2.86-18.82,1.59-21.78a4.31,4.31,0,0,0-3.91-2.85c-5.5-1.38-5.82,6.54-5.82,6.54l-4.65,16.18-1.9,17.46-1.58-.85s-.75-18.51-.43-18.82,2.22-12.8,2.22-12.8,1.05-2.32,2.33-5.29a6.4,6.4,0,0,0,0-5.28c-2.23-4.55-6.87-2.43-7.83,0a69.81,69.81,0,0,1-3.81,7.19L171,267.5c.2,3.27-1.68,19.45-1.68,19.45l-1.91-.87-3.07-9.5,2.34-9.72s5.07-5.6,4.22-8.89-5.18-2.32-5.18-2.32L157,266h-2.55l-6,7.62a48.23,48.23,0,0,0-1.38,25.28l1.38,6.44v41.56s-4.12,6.65-4.12,7.28c0,.29-1.7,5.55-4.07,12.09,10.37,6.1,19.3,10.82,25.63,13.32,3,1.17,6,2.3,9,3.37,3.8-10.67,8.24-22.09,10.69-24.75,4.86-5.29,14.38-15.44,14.38-15.44s10.81-17.37,12.08-23.15c1-4.74,3.58-13.34,4.46-16.3a5.74,5.74,0,0,0,.24-2.06c-.07-1.56-.22-4.59-.22-7.27C216.5,290.19,218.76,286.38,218.34,284.42Z"/></clipPath><clipPath id="clip-path-3"><path class="cls-2" d="M431.17,265.11a72,72,0,0,1-1,11.87c-2.9,17.3-12,29.93-22.76,29.93a14.39,14.39,0,0,1-2.86-.3c-11.75-2.5-20.86-20.12-20.86-41.5,0-23.08,10.62-31.24,23.72-31.24S431.17,242,431.17,265.11Z"/></clipPath></defs><g id="Calque_2" data-name="Calque 2"><g id="Background_Simple" data-name="Background Simple"><path class="cls-3" d="M462.86,193.82a119.56,119.56,0,0,1-3.33,28.48c-.75,3.06-1.65,6.11-2.68,9.11-.3.86-.6,1.72-.92,2.57s-.53,1.4-.8,2.09l-.23.57c-.29.72-.58,1.44-.89,2.15l-.15.35c-.3.7-.61,1.4-.92,2.09l-.42.91c-.28.62-.57,1.23-.87,1.84s-.63,1.29-.95,1.93c-.12.23-.23.46-.35.68l-.85,1.65-.69,1.27q-1.59,2.94-3.33,5.8c-.47.78-1,1.56-1.44,2.33-.11.19-.23.38-.35.57q-.84,1.32-1.71,2.64c-.47.71-.94,1.42-1.43,2.13l-1.27,1.85-.28.39c-.44.64-.9,1.28-1.35,1.92-.56.79-1.13,1.56-1.7,2.34-.12.16-.23.32-.35.47-.65.89-1.32,1.77-2,2.64-.4.52-.8,1.05-1.21,1.56-.72,1-1.46,1.89-2.21,2.83s-1.43,1.79-2.16,2.68l-.24.29c-.72.89-1.44,1.77-2.18,2.65-.21.27-.44.54-.66.8-.67.81-1.35,1.62-2,2.42q-2.94,3.48-5.93,6.9-6.08,7-12.41,13.89c-3.51,3.8-7.07,7.58-10.7,11.29-17.42,17.89-36.28,34.58-56.79,47.88-2.55,1.65-5.12,3.26-7.72,4.79l-2.85,1.67-.49.28c-1,.56-2,1.11-3,1.65s-2,1.11-3,1.64l-1.38.72q-3,1.56-6,3c-1.09.52-2.18,1-3.28,1.51s-2,.91-3.05,1.35l-1.25.53c-.93.4-1.87.78-2.81,1.16q-2.72,1.1-5.48,2.09l-2.12.76-1.2.41-2,.65-1.72.55-.06,0q-1.69.53-3.39,1c-1.79.52-3.58,1-5.38,1.46-1.19.3-2.38.58-3.58.85s-2.26.5-3.4.74l-.27.05c-1.18.24-2.37.47-3.56.68l-1.82.31-1.84.29c-.55.09-1.11.17-1.66.24l-2,.28a154.51,154.51,0,0,1-21.37,1.21l-1.28,0a176.84,176.84,0,0,1-19.35-1.45l-1.41-.19-2.43-.34-1.89-.3c-2.67-.42-5.32-.9-8-1.44-.59-.11-1.17-.23-1.75-.36-1.78-.37-3.57-.77-5.34-1.19-1.19-.28-2.37-.57-3.55-.87l-1.77-.46-1.77-.47c-2.35-.63-4.69-1.31-7-2q-4.06-1.23-8.08-2.61l-2.92-1c-3-1.07-6-2.2-9-3.37l-1.63-.66-1.31-.57-.88-.4c-1.94-.88-4.05-1.91-6.32-3.07l-1.16-.6c-1.39-.73-2.84-1.5-4.33-2.32-3.13-1.72-6.48-3.62-10-5.69-40-23.54-101.26-67.72-115.64-84.47-.73-.85-1.44-1.71-2.15-2.58-.55-.68-1.1-1.37-1.63-2.07s-1-1.26-1.44-1.91-.83-1.13-1.23-1.71-.76-1.07-1.13-1.61a.83.83,0,0,0-.08-.12c-.45-.67-.9-1.34-1.34-2s-.84-1.3-1.24-2c-.2-.31-.39-.63-.58-.95q-.67-1.11-1.32-2.22s0,0,0,0c-.46-.82-.92-1.64-1.37-2.47-.78-1.45-1.53-2.91-2.23-4.39l-.54-1.15a91.47,91.47,0,0,1-3.74-9.29c-.39-1.1-.74-2.21-1.08-3.32-.43-1.43-.82-2.87-1.18-4.31-.07-.29-.14-.57-.2-.86-.18-.75-.35-1.51-.5-2.27-.23-1.06-.42-2.12-.6-3.19,0-.26-.09-.52-.12-.78-.09-.55-.17-1.1-.24-1.66s-.17-1.33-.24-2c0-.23,0-.45-.07-.67-.06-.57-.1-1.14-.15-1.7a.61.61,0,0,0,0-.14c0-.68-.09-1.35-.11-2a1.28,1.28,0,0,1,0-.19q0-1.06-.06-2.13v-2c0-1,0-2.08.11-3.13,0-.68.09-1.36.15-2,.12-1.34.28-2.68.48-4,.1-.68.21-1.36.34-2q.36-2,.87-4.05a69.72,69.72,0,0,1,3.45-10.25A72.21,72.21,0,0,1,9,187.23c.1-.2.22-.41.34-.61,5.39-9.49,12.72-17.91,21-25.71.88-.84,1.77-1.66,2.68-2.47s1.91-1.72,2.88-2.58l.18-.16q2.32-2,4.71-4c2.45-2,4.94-4.06,7.45-6.06l.25-.2c2.15-1.7,4.32-3.39,6.48-5.07,3.4-2.63,6.81-5.25,10.15-7.86l2.64-2.07c1-.76,1.92-1.52,2.87-2.28a213.69,213.69,0,0,0,23.86-22.64q2.09-2.28,4.14-4.59c.65-.74,1.3-1.47,1.94-2.21,9.13-10.4,17.62-20.92,27.07-30.85q3.38-3.56,6.92-7c2-1.91,4-3.79,6.14-5.63,2.41-2.12,4.89-4.19,7.49-6.19,3.55-2.76,7.29-5.41,11.29-7.94,1-.63,1.95-1.24,2.93-1.84,99.71-62,173.1-41.74,222.06,0Q390,43.95,395.11,49c2.08,2,4.09,4.09,6,6.19.22.22.42.45.63.69q2.06,2.19,4,4.41l1.15,1.32c.57.66,1.14,1.32,1.7,2s1.37,1.63,2.05,2.45L412,67.64q4.1,5,7.81,10.2c.5.68,1,1.37,1.48,2.06,3.42,4.8,6.6,9.65,9.55,14.47L432,96.43q.63,1,1.23,2.07l1.19,2c.4.69.79,1.37,1.17,2l1.14,2.05c.39.68.76,1.36,1.11,2l1.09,2c.36.67.71,1.35,1.06,2l1,2,1,2q2,4,3.73,7.82c.58,1.3,1.16,2.59,1.71,3.86,2.49,5.72,4.62,11.19,6.36,16.28a.19.19,0,0,1,0,.07c.17.49.33,1,.49,1.45s.33,1,.49,1.48.25.75.36,1.13c.18.56.36,1.12.53,1.69s.37,1.22.54,1.83c.33,1.12.65,2.24.95,3.37.26.95.51,1.9.75,2.86.05.18.1.35.14.53s.07.3.11.45c.14.56.28,1.12.41,1.69.36,1.49.69,3,1,4.49.17.82.34,1.63.49,2.45l.09.46q.22,1.16.42,2.31c.18,1,.35,2.07.5,3.1.13.78.24,1.57.35,2.36,0,.11,0,.23.05.35.07.52.14,1.05.2,1.58s.11.88.16,1.31c.18,1.59.34,3.17.47,4.76l.09,1.08.12,1.81c0,.67.08,1.34.11,2,0,.52.05,1,.07,1.55,0,.76.05,1.53.06,2.29S462.86,192.93,462.86,193.82Z"/><g class="cls-4"><path class="cls-1" d="M462.86,193.82a119.56,119.56,0,0,1-3.33,28.48c-.75,3.06-1.65,6.11-2.68,9.11-.3.86-.6,1.72-.92,2.57s-.53,1.4-.8,2.09l-.23.57c-.29.72-.58,1.44-.89,2.15l-.15.35c-.3.7-.61,1.4-.92,2.09l-.42.91c-.28.62-.57,1.23-.87,1.84s-.63,1.29-.95,1.93c-.12.23-.23.46-.35.68l-.85,1.65-.69,1.27q-1.59,2.94-3.33,5.8c-.47.78-1,1.56-1.44,2.33-.11.19-.23.38-.35.57q-.84,1.32-1.71,2.64c-.47.71-.94,1.42-1.43,2.13l-1.27,1.85-.28.39c-.44.64-.9,1.28-1.35,1.92-.56.79-1.13,1.56-1.7,2.34-.12.16-.23.32-.35.47-.65.89-1.32,1.77-2,2.64-.4.52-.8,1.05-1.21,1.56-.72,1-1.46,1.89-2.21,2.83s-1.43,1.79-2.16,2.68l-.24.29c-.72.89-1.44,1.77-2.18,2.65-.21.27-.44.54-.66.8-.67.81-1.35,1.62-2,2.42q-2.94,3.48-5.93,6.9-6.08,7-12.41,13.89c-3.51,3.8-7.07,7.58-10.7,11.29-17.42,17.89-36.28,34.58-56.79,47.88-2.55,1.65-5.12,3.26-7.72,4.79l-2.85,1.67-.49.28c-1,.56-2,1.11-3,1.65s-2,1.11-3,1.64l-1.38.72q-3,1.56-6,3c-1.09.52-2.18,1-3.28,1.51s-2,.91-3.05,1.35l-1.25.53c-.93.4-1.87.78-2.81,1.16q-2.72,1.1-5.48,2.09l-2.12.76-1.2.41-2,.65-1.72.55-.06,0q-1.69.53-3.39,1c-1.79.52-3.58,1-5.38,1.46-1.19.3-2.38.58-3.58.85s-2.26.5-3.4.74l-.27.05c-1.18.24-2.37.47-3.56.68l-1.82.31-1.84.29c-.55.09-1.11.17-1.66.24l-2,.28a154.51,154.51,0,0,1-21.37,1.21l-1.28,0a176.84,176.84,0,0,1-19.35-1.45l-1.41-.19-2.43-.34-1.89-.3c-2.67-.42-5.32-.9-8-1.44-.59-.11-1.17-.23-1.75-.36-1.78-.37-3.57-.77-5.34-1.19-1.19-.28-2.37-.57-3.55-.87l-1.77-.46-1.77-.47c-2.35-.63-4.69-1.31-7-2q-4.06-1.23-8.08-2.61l-2.92-1c-3-1.07-6-2.2-9-3.37l-1.63-.66-1.31-.57-.88-.4c-1.94-.88-4.05-1.91-6.32-3.07l-1.16-.6c-1.39-.73-2.84-1.5-4.33-2.32-3.13-1.72-6.48-3.62-10-5.69-40-23.54-101.26-67.72-115.64-84.47-.73-.85-1.44-1.71-2.15-2.58-.55-.68-1.1-1.37-1.63-2.07s-1-1.26-1.44-1.91-.83-1.13-1.23-1.71-.76-1.07-1.13-1.61a.83.83,0,0,0-.08-.12c-.45-.67-.9-1.34-1.34-2s-.84-1.3-1.24-2c-.2-.31-.39-.63-.58-.95q-.67-1.11-1.32-2.22s0,0,0,0c-.46-.82-.92-1.64-1.37-2.47-.78-1.45-1.53-2.91-2.23-4.39l-.54-1.15a91.47,91.47,0,0,1-3.74-9.29c-.39-1.1-.74-2.21-1.08-3.32-.43-1.43-.82-2.87-1.18-4.31-.07-.29-.14-.57-.2-.86-.18-.75-.35-1.51-.5-2.27-.23-1.06-.43-2.12-.6-3.19,0-.26-.09-.52-.12-.78-.09-.55-.17-1.1-.24-1.66s-.17-1.33-.24-2c0-.23,0-.45-.07-.67-.06-.57-.1-1.14-.15-1.7a.61.61,0,0,0,0-.14c0-.68-.09-1.35-.11-2a1.28,1.28,0,0,1,0-.19q0-1.06-.06-2.13c0-1.73,0-3.45.11-5.17,0-.68.09-1.36.15-2,.12-1.34.28-2.68.48-4,.1-.68.21-1.36.34-2q.36-2,.87-4.05a69.72,69.72,0,0,1,3.45-10.25A72.21,72.21,0,0,1,9,187.23c.1-.2.22-.41.34-.61,5.39-9.49,12.72-17.91,21-25.71l1.42-1.33L33,158.44c1-.87,1.91-1.72,2.88-2.58l.18-.16q2.32-2,4.71-4c2.45-2,4.94-4.06,7.45-6.06l.25-.2c2.15-1.7,4.32-3.39,6.48-5.07l3.26-2.52c2.31-1.78,4.62-3.56,6.89-5.34l2.64-2.07c1-.76,1.92-1.52,2.87-2.28a213.69,213.69,0,0,0,23.86-22.64q2.09-2.28,4.14-4.59c.65-.74,1.3-1.47,1.94-2.21,9.13-10.4,17.62-20.92,27.07-30.85q3.38-3.56,6.92-7c2-1.91,4-3.79,6.14-5.63,2.41-2.12,4.89-4.19,7.49-6.19,3.55-2.76,7.29-5.41,11.29-7.94,1-.63,1.95-1.24,2.93-1.84,99.71-62,173.1-41.74,222.06,0Q390,43.95,395.11,49c2.08,2,4.09,4.09,6,6.19.22.22.42.45.63.69q2.06,2.19,4,4.41l1.15,1.32c.57.66,1.14,1.32,1.7,2s1.37,1.63,2.05,2.45L412,67.64q4.1,5,7.81,10.2c.5.68,1,1.37,1.48,2.06,3.42,4.8,6.6,9.65,9.55,14.47L432,96.43q.63,1,1.23,2.07l1.19,2c.4.69.79,1.37,1.17,2l1.14,2.05c.39.68.76,1.36,1.11,2l1.09,2c.36.67.71,1.35,1.06,2l1,2,1,2q2,4,3.73,7.82c.58,1.3,1.16,2.59,1.71,3.86,2.49,5.72,4.62,11.19,6.36,16.28a.19.19,0,0,1,0,.07c.17.49.33,1,.49,1.45s.33,1,.49,1.48.25.75.36,1.13c.18.56.36,1.12.53,1.69s.37,1.22.54,1.83c.33,1.12.65,2.24.95,3.37.26.95.51,1.9.75,2.86.05.18.1.35.14.53s.07.3.11.45c.14.56.28,1.12.41,1.69.36,1.49.69,3,1,4.49.17.82.34,1.63.49,2.45l.09.46q.22,1.16.42,2.31c.18,1,.35,2.07.5,3.1.13.78.24,1.57.35,2.36,0,.11,0,.23.05.35.07.52.14,1.05.2,1.58s.11.88.16,1.31c.18,1.59.34,3.17.47,4.76l.09,1.08.12,1.81c0,.67.08,1.34.11,2,0,.52.05,1,.07,1.55,0,.76.05,1.53.06,2.29S462.86,192.93,462.86,193.82Z"/></g></g><g id="Plants"><path class="cls-5" d="M13.28,210.25c-.2-.13-.15-.22,0,0Z"/><path class="cls-6" d="M106.81,201.43A18.32,18.32,0,0,1,94.24,215.9l-2.48.81c-8.92,12.63-24.56,18-37.89,10.19L50,224.61l-10.92-13-.13,0c-3.46.72-7.37.19-9.93-2.25a3.57,3.57,0,0,1-5.07,2.3,3.57,3.57,0,0,1-.44-5.55c-2.2,1.94-5.6,1.05-7.72-1.07a66.7,66.7,0,0,1,2-17.29,69.72,69.72,0,0,1,3.45-10.25,72.21,72.21,0,0,1,3.59-7.34c.1-.2.22-.41.34-.61a87.87,87.87,0,0,1,6.65-10L33,158.44c1-.87,1.91-1.72,2.88-2.58l.18-.16q2.32-2,4.71-4c2.45-2,4.94-4.06,7.45-6.06l.25-.2c2.15-1.7,4.32-3.39,6.48-5.07l3.26-2.52a8.94,8.94,0,0,1,1.92.45c2.67.93,3.13,3.38,5,5.06,2.46,2.25,4.82-1.53,8.61-1.41,11.65.36,7.13,12.31,12.82,10.81,24.57-6.48,20.44,25,9.76,31.85C102.6,189.8,108,193.25,106.81,201.43Z"/><ellipse class="cls-2" cx="53.98" cy="190.38" rx="41.44" ry="40.93"/><ellipse class="cls-7" cx="53.98" cy="188.73" rx="37.78" ry="37.32"/><path class="cls-3" d="M13.38,203.44c-2.38,1.47-3.06,6.45-1.19,8.6s5.46.49,6.19-2.87a1.12,1.12,0,0,0,2,.29,2.32,2.32,0,0,0,.14-2.11c-.18-.15-.11-.26,0,0,1.22,1,3.32-.09,3.61-2.15-.89,5.49,4.11,10.29,7.79,7.5-1.09,2.33.34,5.41,2.24,6s3.94-.53,5.76-1.78,3.69-2.67,5.68-2.76c1.73-.08,3.34.9,5,1.48,5.26,1.83,11.42-.59,15.44-6.11,2.66,4.55,9.21,2.88,11-2.79.37,2.65,2.18,4.67,4.21,4.7s4.06-1.94,4.76-4.58v0c0,2.51,2.28,3.74,3.88,2.12a9.38,9.38,0,0,0,2.31-8.87c2.72-.11,5.36-3.27,5.77-6.93s-1.43-7.33-4.06-8.05c4.51-1.88,8-8,8.22-14.3s-3.06-12.08-7.49-13.55a4.7,4.7,0,0,0-5.08,1.06C89,154.82,87.39,151.63,85,150c-3.8-2.57-9.09-.81-11.92,4a9.43,9.43,0,0,0,.22-8.39c-1.26-2.33-3.76-3.27-5.88-2.16-.45-3.83-3.41-6.56-6.3-5.81s-5.22,4.83-5,8.71c-.27-3.12-3.95-3.89-5.28-1.28.11.24-.06.1,0,0-1.84-3.85-5.58-5.84-9-4.71-3.69,1.21-6.79,5.85-7.27,10.9a6.53,6.53,0,0,0-9,.25c-2.73,2.46-4.31,7.14-3.83,11.33-2.87-2.84-7.7-1.29-9.67,3.09s-.62,10.59,2.71,12.42c-2.29.35-4.31,3.39-4.31,6.47s2,5.73,4.32,5.64c-2.31.2-4.5,2.94-4.84,6S11.15,202.75,13.38,203.44Z"/><g class="cls-8"><path class="cls-1" d="M51.47,189.1a4.27,4.27,0,0,0-4-1,4.79,4.79,0,0,0-3,3.71c-.32,1.81.52,3.81,1.9,4.15,1.69.42,3.42-1.46,5.14-1.26a12.21,12.21,0,0,1,1.77.58c2.47.7,5-1.52,7.06-3.61a9.82,9.82,0,0,0,2-2.49,4.06,4.06,0,0,0,.26-3.29c-.61-1.35-2.1-1.46-3.36-1.2a13.44,13.44,0,0,0-7,4.1c.07-.5.14-1,.22-1.51Z"/><path class="cls-1" d="M87.59,184.17a5.57,5.57,0,0,0-2.14-1.32,2.05,2.05,0,0,0-2.26.94,3.29,3.29,0,0,0,.55,3.76,5.26,5.26,0,0,0,3.14,1.17c1.14.16,2.58.12,3.17-1.2a2.88,2.88,0,0,0-.48-2.88,4.86,4.86,0,0,0-2.22-1.28Z"/><path class="cls-1" d="M31.05,163.74a10.91,10.91,0,0,0-4.74,7.31c-.18.95-.18,2.12.46,2.58a1.67,1.67,0,0,0,1.55,0L35,171.18a10,10,0,0,0-3,2.2,5,5,0,0,0-1.2,3.91,2.87,2.87,0,0,0,3,2.44,6.42,6.42,0,0,0,3.67-2.07,6.78,6.78,0,0,0,2.38-4.45c0-1.81-1.7-3.37-2.81-2.15a24.86,24.86,0,0,0,7.17-4.55,8.67,8.67,0,0,0,2.09-2.57,4.36,4.36,0,0,0,.27-3.45c-2.16-5.09-5.15,2.76-6.55,3.52C37.32,165.47,34.42,161.75,31.05,163.74Z"/><path class="cls-1" d="M20.37,186.68a3.2,3.2,0,0,0,.53,2.89,1.31,1.31,0,0,0,2.12-.68A8,8,0,0,0,19,192c-.95,1.64-.77,4.4.69,4.92.91.32,1.89-.31,2.75-.95a58.58,58.58,0,0,0,6.93-6.15,3.16,3.16,0,0,0,2.48,4.14c1.64.08,3.2-1.15,4.63-2.33,1.75-1.44,3.77-3.61,3.36-6.09a3,3,0,0,0-4.23-2.25c-1.7.74-3,2.56-4.21,4.29,1-1.78-.31-4.25-1.93-4.43s-3.16,1.14-4.17,2.68c1.86-1.39,2.33-4.77-.12-5C23.58,180.64,20.79,185,20.37,186.68Z"/><path class="cls-1" d="M70.9,176.08c-1.37-.58-3.13.68-3.54,2.53s.64,3.87,2.09,4.07a4.39,4.39,0,0,0-2.83,2,3.51,3.51,0,0,0-.63,2.13,2,2,0,0,0,1.94,1.8,5.34,5.34,0,0,0,2.59-1.07A4.43,4.43,0,0,0,68,188.65a2.58,2.58,0,0,0-.43,3c.52.63,1.39.47,2.11.17A11.31,11.31,0,0,0,74,188.45c.9,1.24,2.24,2.09,3.59,1.72a3.46,3.46,0,0,0,2.14-3.89,2.5,2.5,0,0,0-2.2-1.94,5.65,5.65,0,0,0-2.88.74,7.44,7.44,0,0,0,2.37-3.37c.37-1.44-.35-3.3-1.51-3.11-1.31.21-2,2.51-3.06,3.39C71.23,180.55,73.67,177.24,70.9,176.08Z"/><path class="cls-1" d="M47.5,170.6c-1.5,1.37-2.07,3.93-2,6.21.06,2.51.91,5.15,2.71,6.05,2.36,1.19,5.39-1.53,5.89-4.83a8.09,8.09,0,0,0-3.41-7.92A2.87,2.87,0,0,0,47.5,170.6Z"/><path class="cls-1" d="M64.22,166.85l.6.64a2.63,2.63,0,0,0-4.34-.17,4.76,4.76,0,0,0-.12,5.57,2.71,2.71,0,0,0,4.36-.67A4,4,0,0,0,70,170.66c1.25-1.94,1-5.17-.6-6.27s-4.17.85-4,3.26l-.7-1Z"/><path class="cls-1" d="M82.55,169.51a13.62,13.62,0,0,0-2.93,5.28c-.47,2.06.19,4.61,1.79,5s3.12-1.35,4.07-3.16a8.06,8.06,0,0,0,1.07-5.4c-.44-1.76-2.45-2.7-3.49-1.26Z"/><path class="cls-1" d="M56.26,158.83a2.31,2.31,0,0,0-3.73-1.09,5.14,5.14,0,0,0-1.25,5,3.94,3.94,0,0,0,3.35,2.92,3.7,3.7,0,0,0,3.61-4.09,3.21,3.21,0,0,0,3.43,1.45,8.88,8.88,0,0,0,3.63-1.94c1.54-1.21,3.19-3,3.07-5.24a3.2,3.2,0,0,0-2.8-3.13,5.17,5.17,0,0,0-3.86,2c-.85,1-1.56,2.12-2.48,3s-2.15,1.35-3.1.75Z"/></g></g><g id="Keyboard"><rect class="cls-9" x="126.82" y="220.76" width="230.67" height="97.15"/><rect class="cls-2" x="131.64" y="226.63" width="21.7" height="12.01"/><rect class="cls-2" x="317.97" y="285.2" width="34.18" height="12.01"/><rect class="cls-2" x="331.05" y="241.64" width="21.1" height="12.01"/><rect class="cls-2" x="131.64" y="270.38" width="21.7" height="12.01"/><rect class="cls-2" x="131.64" y="255.92" width="17.57" height="12.01"/><rect class="cls-2" x="131.64" y="241.27" width="12.01" height="12.01"/><rect class="cls-2" x="146.98" y="241.27" width="12.01" height="12.01"/><rect class="cls-2" x="162.31" y="241.27" width="12.01" height="12.01"/><rect class="cls-2" x="177.64" y="241.27" width="12.01" height="12.01"/><rect class="cls-2" x="192.98" y="241.27" width="12.01" height="12.01"/><rect class="cls-2" x="208.31" y="241.27" width="12.01" height="12.01"/><rect class="cls-2" x="223.64" y="241.27" width="12.01" height="12.01"/><rect class="cls-2" x="238.98" y="241.27" width="12.01" height="12.01"/><rect class="cls-2" x="254.31" y="241.27" width="12.01" height="12.01"/><rect class="cls-2" x="269.64" y="241.27" width="12.01" height="12.01"/><rect class="cls-2" x="284.98" y="241.27" width="12.01" height="12.01"/><rect class="cls-2" x="300.31" y="241.27" width="12.01" height="12.01"/><rect class="cls-2" x="315.65" y="241.27" width="12.01" height="12.01"/><rect class="cls-2" x="131.64" y="300.01" width="12.01" height="12.01"/><rect class="cls-2" x="146.98" y="300.01" width="12.01" height="12.01"/><rect class="cls-2" x="162.31" y="300.01" width="12.01" height="12.01"/><rect class="cls-2" x="177.64" y="300.01" width="14.66" height="12.01"/><rect class="cls-2" x="195.62" y="300.01" width="73.35" height="12.01"/><rect class="cls-2" x="293.63" y="300.01" width="12.01" height="12.01"/><rect class="cls-2" x="308.96" y="300.01" width="12.01" height="12.01"/><rect class="cls-2" x="324.32" y="300.01" width="12.01" height="12.01"/><rect class="cls-2" x="271.97" y="300.01" width="18.65" height="12.01"/><rect class="cls-2" x="340.14" y="300.01" width="12.01" height="12.01"/><rect class="cls-2" x="152.62" y="255.92" width="12.01" height="12.01"/><rect class="cls-2" x="167.95" y="255.92" width="12.01" height="12.01"/><rect class="cls-2" x="183.29" y="255.92" width="12.01" height="12.01"/><rect class="cls-2" x="198.62" y="255.92" width="12.01" height="12.01"/><rect class="cls-2" x="213.95" y="255.92" width="12.01" height="12.01"/><rect class="cls-2" x="229.29" y="255.92" width="12.01" height="12.01"/><rect class="cls-2" x="244.62" y="255.92" width="12.01" height="12.01"/><rect class="cls-2" x="259.96" y="255.92" width="12.01" height="12.01"/><rect class="cls-2" x="275.29" y="255.92" width="12.01" height="12.01"/><rect class="cls-2" x="290.62" y="255.92" width="12.01" height="12.01"/><rect class="cls-2" x="305.96" y="255.92" width="12.01" height="12.01"/><rect class="cls-2" x="321.29" y="255.92" width="12.01" height="12.01"/><polygon class="cls-2" points="352.15 255.92 352.15 282.57 340.14 282.57 340.14 267.93 336.62 267.93 336.62 255.92 352.15 255.92"/><rect class="cls-2" x="156.14" y="270.56" width="12.01" height="12.01"/><rect class="cls-2" x="171.47" y="270.56" width="12.01" height="12.01"/><rect class="cls-2" x="186.8" y="270.56" width="12.01" height="12.01"/><rect class="cls-2" x="202.14" y="270.56" width="12.01" height="12.01"/><rect class="cls-2" x="217.47" y="270.56" width="12.01" height="12.01"/><rect class="cls-2" x="232.81" y="270.56" width="12.01" height="12.01"/><rect class="cls-2" x="248.14" y="270.56" width="12.01" height="12.01"/><rect class="cls-2" x="263.47" y="270.56" width="12.01" height="12.01"/><rect class="cls-2" x="278.81" y="270.56" width="12.01" height="12.01"/><rect class="cls-2" x="294.14" y="270.56" width="12.01" height="12.01"/><rect class="cls-2" x="309.47" y="270.56" width="12.01" height="12.01"/><rect class="cls-2" x="324.81" y="270.56" width="12.01" height="12.01"/><rect class="cls-2" x="149.62" y="285.2" width="12.01" height="12.01"/><rect class="cls-2" x="164.95" y="285.2" width="12.01" height="12.01"/><rect class="cls-2" x="180.29" y="285.2" width="12.01" height="12.01"/><rect class="cls-2" x="195.62" y="285.2" width="12.01" height="12.01"/><rect class="cls-2" x="210.95" y="285.2" width="12.01" height="12.01"/><rect class="cls-2" x="226.29" y="285.2" width="12.01" height="12.01"/><rect class="cls-2" x="241.62" y="285.2" width="12.01" height="12.01"/><rect class="cls-2" x="256.96" y="285.2" width="12.01" height="12.01"/><rect class="cls-2" x="272.29" y="285.2" width="12.01" height="12.01"/><rect class="cls-2" x="287.62" y="285.2" width="12.01" height="12.01"/><rect class="cls-2" x="302.96" y="285.2" width="12.01" height="12.01"/><rect class="cls-2" x="156.14" y="227.36" width="12.01" height="12.01"/><rect class="cls-2" x="171.47" y="227.36" width="12.01" height="12.01"/><rect class="cls-2" x="186.8" y="227.36" width="12.01" height="12.01"/><rect class="cls-2" x="202.14" y="227.36" width="12.01" height="12.01"/><rect class="cls-2" x="217.47" y="227.36" width="12.01" height="12.01"/><rect class="cls-2" x="232.81" y="227.36" width="12.01" height="12.01"/><rect class="cls-2" x="248.14" y="227.36" width="12.01" height="12.01"/><rect class="cls-2" x="263.47" y="227.36" width="12.01" height="12.01"/><rect class="cls-2" x="278.81" y="227.36" width="12.01" height="12.01"/><rect class="cls-2" x="294.14" y="227.36" width="12.01" height="12.01"/><rect class="cls-2" x="309.47" y="227.36" width="12.01" height="12.01"/><rect class="cls-2" x="324.81" y="227.36" width="12.01" height="12.01"/><rect class="cls-2" x="340.14" y="227.36" width="12.01" height="12.01"/><rect class="cls-2" x="131.64" y="285.2" width="14.55" height="12.01"/><polygon class="cls-10" points="126.82 221.38 131.64 219.77 354.36 219.77 357.53 221.36 126.82 221.38"/></g><g id="Hands"><path class="cls-6" d="M291.47,388l-4.69-28.25a23.07,23.07,0,0,0-6.35-11.06c-9.33-9-21.66-18.24-22.19-30-.81-18-3.62-17.49-3.32-21.94a54.06,54.06,0,0,0,3.21-6.6,38.47,38.47,0,0,0,1.36-5.34,3.64,3.64,0,0,1,4-2.85,6.19,6.19,0,0,1,3.39,1.59,9.39,9.39,0,0,1,2.54,6.5,27.79,27.79,0,0,1-1,7.06,46.16,46.16,0,0,1,3,12.41c1.07-3.3,1.88-6.63,2.95-9.92.22-.12.14-.38.35-.5-1.51-3.24-.23-3.06-3.22-10.19-5-12-10.64-23.57-14.65-38.65A8.57,8.57,0,0,1,257,246c1.45-4.31,5.89-3.32,7.83-.81a8.28,8.28,0,0,1,1.2,2.18,116.46,116.46,0,0,0,9.57,18.45l10.89,16.6s3.79-3.11,4.37-4.5h0c.57-1.4.85-12.67.85-12.67s-.86,2.11-2.77,2c-1.38-.1-4.18.7-6.17-1.54a5.21,5.21,0,0,1-.18-6.54l4.93-6.66a7.48,7.48,0,0,1,7.74-.93,36.82,36.82,0,0,1,8.71,6.1,17.81,17.81,0,0,1,7.58,1.46c3.49,1.68,7.15,6.5,7.15,6.5s4.07.25,5.9,1.58c.46.33,6.67,10,4.43,17.53-1.33,4.49-2.15,11-2.75,12.76l-3,44.09,6.15,29-13.15,7.33a94,94,0,0,1-15.13,6.77Z"/><path class="cls-1" d="M328.81,336.47l.12-44.2c.48-1.79.87-8.35,1.89-12.92,1.74-7.66-5.1-16.89-5.58-17.19-1.92-1.2-6-1.18-6-1.18s-4-4.57-7.57-6A17.69,17.69,0,0,0,304,254a36.51,36.51,0,0,0-9.1-5.52,7.51,7.51,0,0,0-7.66,1.45l-4.47,7a5.19,5.19,0,0,0,.61,6.51c2.14,2.11,4.88,1.13,6.26,1.13,1.91,0,2.63-2.17,2.63-2.17s.47,11.26,0,12.69v0c-.49,1.43-4.07,4.78-4.07,4.78l-12-15.84a114.88,114.88,0,0,1-10.77-17.77,8.56,8.56,0,0,0-1.35-2.1c-2.1-2.37-6.59-3.07-7.76,1.33a8.71,8.71,0,0,0,.19,4.24c5,14.77,11.38,25.94,17.19,37.59,3.45,6.91,2.17,6.82,3.89,9.95-.2.14-.11.39-.32.52-.84,3.36-1.43,6.73-2.28,10.09-.81-4-1.9-8.54-3.83-12.17a27.56,27.56,0,0,0,.53-7.12,9.36,9.36,0,0,0-3-6.31,6,6,0,0,0-3.49-1.36,3.64,3.64,0,0,0-3.84,3.11,37.4,37.4,0,0,1-1,5.42,53.51,53.51,0,0,1-2.77,6.79c0,4.46,2.77,3.73,4.78,21.68,1.56,14,19.56,23.21,29.36,33.3l10.44,32.85a202.3,202.3,0,0,0,34.85-18.3Z"/><g class="cls-11"><path class="cls-3" d="M323.69,276.41a7.73,7.73,0,0,1,2.29-3.47,2.92,2.92,0,0,1,3.83.14q-1.12-3.43-2.38-6.83a10.45,10.45,0,0,0-2.78-4.68c-1.42-1.16-3.76-1.41-5,0a54,54,0,0,1,.28,15.8c-.37,2.84-.85,6.1,1.06,8.24.53.43,1.45-.35,1.11-.94-.16-.28-.72-.3-1-.27A50.16,50.16,0,0,1,323.69,276.41Z"/><path class="cls-3" d="M323.69,276.41a7.73,7.73,0,0,1,2.29-3.47,2.92,2.92,0,0,1,3.83.14q-1.12-3.43-2.38-6.83a10.45,10.45,0,0,0-2.78-4.68c-1.42-1.16-3.76-1.41-5,0a54,54,0,0,1,.28,15.8c-.37,2.84-.85,6.1,1.06,8.24.53.43,1.45-.35,1.11-.94-.16-.28-.72-.3-1-.27A50.16,50.16,0,0,1,323.69,276.41Z"/><path class="cls-12" d="M323.69,276.41a7.73,7.73,0,0,1,2.29-3.47,2.92,2.92,0,0,1,3.83.14q-1.12-3.43-2.38-6.83a10.45,10.45,0,0,0-2.78-4.68c-1.42-1.16-3.76-1.41-5,0a54,54,0,0,1,.28,15.8c-.37,2.84-.85,6.1,1.06,8.24.53.43,1.45-.35,1.11-.94-.16-.28-.72-.3-1-.27A50.16,50.16,0,0,1,323.69,276.41Z"/><path class="cls-3" d="M307.73,271.66a28.13,28.13,0,0,0,.54,5.74,7.18,7.18,0,0,0,3.19,4.62c-1-3.73-.45-7.67.09-11.49l1-7a5.16,5.16,0,0,1,.71-2.31,1.8,1.8,0,0,1,2.11-.77c-1,.59-2.27-.2-2.87-1.18a29.26,29.26,0,0,0-1.53-3.07c-1.34-1.72-4.2-2.1-6.18-1.64C305.38,260.31,307.5,265.76,307.73,271.66Z"/><path class="cls-3" d="M307.73,271.66a28.13,28.13,0,0,0,.54,5.74,7.18,7.18,0,0,0,3.19,4.62c-1-3.73-.45-7.67.09-11.49l1-7a5.16,5.16,0,0,1,.71-2.31,1.8,1.8,0,0,1,2.11-.77c-1,.59-2.27-.2-2.87-1.18a29.26,29.26,0,0,0-1.53-3.07c-1.34-1.72-4.2-2.1-6.18-1.64C305.38,260.31,307.5,265.76,307.73,271.66Z"/><g class="cls-13"><path class="cls-1" d="M307.73,271.66a28.13,28.13,0,0,0,.54,5.74,7.18,7.18,0,0,0,3.19,4.62c-1-3.73-.45-7.67.09-11.49l1-7a5.16,5.16,0,0,1,.71-2.31,1.8,1.8,0,0,1,2.11-.77c-1,.59-2.27-.2-2.87-1.18a29.26,29.26,0,0,0-1.53-3.07c-1.34-1.72-4.2-2.1-6.18-1.64C305.38,260.31,307.5,265.76,307.73,271.66Z"/></g><path class="cls-3" d="M291.41,256.25a3.56,3.56,0,0,1-1.06-2.1,3,3,0,0,0-1.17-2c-3.07,1.94-1.39,7.65-4.5,9.55-.6.36-1.37.57-1.7,1.19a1.56,1.56,0,0,0,.33,1.76,3,3,0,0,0,1.7.81,6.88,6.88,0,0,0,6.54-2.85c1.22-1.67,2.06-4.38,1.46-6.37A1.51,1.51,0,0,1,291.41,256.25Z"/><path class="cls-3" d="M259.48,293.63c-.05.22-.09.48.08.62s.61-.12.81-.39a5.35,5.35,0,0,1,5.95-1.94c.81,0,1.09-1.25.56-1.86a2.93,2.93,0,0,0-2.24-.72,4.36,4.36,0,0,1-2.36-.39,2.34,2.34,0,0,1-1-2.52C260.77,288.84,260.1,291.24,259.48,293.63Z"/><g class="cls-13"><path class="cls-1" d="M291.41,256.25a3.56,3.56,0,0,1-1.06-2.1,3,3,0,0,0-1.17-2c-3.07,1.94-1.39,7.65-4.5,9.55-.6.36-1.37.57-1.7,1.19a1.56,1.56,0,0,0,.33,1.76,3,3,0,0,0,1.7.81,6.88,6.88,0,0,0,6.54-2.85c1.22-1.67,2.06-4.38,1.46-6.37A1.51,1.51,0,0,1,291.41,256.25Z"/><path class="cls-1" d="M259.48,293.63c-.05.22-.09.48.08.62s.61-.12.81-.39a5.35,5.35,0,0,1,5.95-1.94c.81,0,1.09-1.25.56-1.86a2.93,2.93,0,0,0-2.24-.72,4.36,4.36,0,0,1-2.36-.39,2.34,2.34,0,0,1-1-2.52C260.77,288.84,260.1,291.24,259.48,293.63Z"/></g><path class="cls-3" d="M300.19,255.49c-1.74-.24-3.59-.28-5.12-1.17-1.9-1.12-3.21-3.51-5.42-3.61-2-.08-3.43,1.72-4.54,3.34a6.05,6.05,0,0,1,3.93-5.63,9.8,9.8,0,0,1,7.16.28,26.46,26.46,0,0,1,6.2,3.86,8.53,8.53,0,0,1,2.1,2.05C307,258.49,301.74,255.69,300.19,255.49Z"/><path class="cls-12" d="M300.19,255.49c-1.74-.24-3.59-.28-5.12-1.17-1.9-1.12-3.21-3.51-5.42-3.61-2-.08-3.43,1.72-4.54,3.34a6.05,6.05,0,0,1,3.93-5.63,9.8,9.8,0,0,1,7.16.28,26.46,26.46,0,0,1,6.2,3.86,8.53,8.53,0,0,1,2.1,2.05C307,258.49,301.74,255.69,300.19,255.49Z"/><path class="cls-3" d="M268.92,312.28c.12-.22.22-.45.32-.67A.75.75,0,0,0,268.92,312.28Z"/><path class="cls-3" d="M271.89,296.79c-.2-2.47.15-5,.05-7.42s-.75-5.07-2.55-6.76c-2.58-2.44-9.65-1.19-7.28,3.42a3,3,0,0,0,3.67,1.37,2.67,2.67,0,0,0,1.25-3.61,12.83,12.83,0,0,1-.61,14.57,11.62,11.62,0,0,1,2.82,13.25,1.46,1.46,0,0,1,1.65,0,5,5,0,0,1,1.27,2.26c.35.81,1,1.65,1.88,1.59,1.2-2.94.8-6.29,0-9.38S272.14,300,271.89,296.79Z"/><path class="cls-3" d="M297.76,250.42a9.87,9.87,0,0,0-4.73-2Z"/><path class="cls-3" d="M309.52,281.71c-.38-1.7-1.17-3.29-1.64-5-1.09-3.91-.4-8.08-.9-12.11a20.94,20.94,0,0,0-7.43-13.46l-1.79-.75a10,10,0,0,1,3.6,5.24c1.39,4.77,1.82,9.76,2.44,14.69A197.1,197.1,0,0,0,308,293C309.15,289.32,310.35,285.45,309.52,281.71Z"/><path class="cls-3" d="M290.48,263.92a6.27,6.27,0,0,0,2.11-4.11,17.06,17.06,0,0,0-.11-4.22,1.38,1.38,0,0,1-1.58,1,3.51,3.51,0,0,1-1.89-1.72l-.36,1.26-.15-.68-.48.6c.71,2,1.4,4.34.3,6.16a7.27,7.27,0,0,1-2.25,2.09A3.82,3.82,0,0,0,290.48,263.92Z"/><path class="cls-3" d="M292.42,255.09l.06.5A.8.8,0,0,0,292.42,255.09Z"/><path class="cls-3" d="M287.19,275.33c-3.5-6.89-7-13.78-10.87-20.48a66.17,66.17,0,0,0-7.64-11.16c-1.34-1.5-5.16-5-7.27-2.68-1.41,1.52.44,4.29-1.29,5.93.4,0,2.35-.19,2.56.07a30.43,30.43,0,0,1,6.71,19.39c1.41-1.1,3.35.43,4.45,1.85a329.77,329.77,0,0,1,19,27.1c-1.14-4.13-1.17-8.51-2.39-12.62A45,45,0,0,0,287.19,275.33Z"/><path class="cls-3" d="M327.93,292.12a43.75,43.75,0,0,0,3.13-13.84,22.7,22.7,0,0,0-3.14-12.52c-.58-.94-3-4.77-4.3-4.46-2.34.56.74,4.64,1.28,5.66,2,3.84,4.11,7.91,4,12.26-.1,3.35-1.51,6.5-2.64,9.66a20.69,20.69,0,0,0-1.41,6.86c-.17.26-.33.52-.52.77a10.28,10.28,0,0,1-6.28,4.14c1-3,1.93-6,2.9-8.95.35-1.07.47-2.52-.15-3.26a2.81,2.81,0,0,0,.31-1.31,6.49,6.49,0,0,0-.85-2.29c-1.34-2.88-.89-6.23-.56-9.39.4-3.9.55-7.92-.59-11.67s-3.79-7.22-7.51-8.47l1,1-1.26-.92,2.34,4.88-.86,1.23c1.29-.67,2.94.31,3.53,1.64a8.58,8.58,0,0,1,.29,4.31,86.15,86.15,0,0,0,1.18,24.25,11.86,11.86,0,0,1-1.44,5.34,5.29,5.29,0,0,1-5,2.71,5.25,5.25,0,0,0-1.93-5.33c-2,2.8-.82,7.15-.52,10.33a114.08,114.08,0,0,0,2.32,14.37,46.68,46.68,0,0,1,2.56-12Q315.37,313,317,319a6.94,6.94,0,0,1,.62-3.23,2.4,2.4,0,0,1,2.76-1.28A3.42,3.42,0,0,1,322,316.5a36.78,36.78,0,0,1,2,21.64c1.34.74,3.12-.16,3.87-1.5a9,9,0,0,0,.71-4.5Q328.27,312.13,327.93,292.12Z"/><path class="cls-3" d="M294,296.35c-.64,1.13,2,5.59,2.41,6.65l6.61,16.14a76.28,76.28,0,0,0-5.12-20.67C297.48,297.35,295.3,294.12,294,296.35Z"/><path class="cls-3" d="M297.45,267.83c-.38.57-.91,1.27-1.56,1.07s-.72-1-.71-1.62c.07-3.74.13-7.49.19-11.23-3,2.16-2.64,5-2.85,8.23-.12,1.88.42,10.8-.86,11.89a33.28,33.28,0,0,0,7.44-9.05C298.58,266.68,297.82,267.26,297.45,267.83Z"/><g class="cls-13"><path class="cls-1" d="M268.92,312.28c.12-.22.22-.45.32-.67A.75.75,0,0,0,268.92,312.28Z"/><path class="cls-1" d="M271.89,296.79c-.2-2.47.15-5,.05-7.42s-.75-5.07-2.55-6.76c-2.58-2.44-9.65-1.19-7.28,3.42a3,3,0,0,0,3.67,1.37,2.67,2.67,0,0,0,1.25-3.61,12.83,12.83,0,0,1-.61,14.57,11.62,11.62,0,0,1,2.82,13.25,1.46,1.46,0,0,1,1.65,0,5,5,0,0,1,1.27,2.26c.35.81,1,1.65,1.88,1.59,1.2-2.94.8-6.29,0-9.38S272.14,300,271.89,296.79Z"/><path class="cls-1" d="M297.76,250.42a9.87,9.87,0,0,0-4.73-2Z"/><path class="cls-1" d="M309.52,281.71c-.38-1.7-1.17-3.29-1.64-5-1.09-3.91-.4-8.08-.9-12.11a20.94,20.94,0,0,0-7.43-13.46l-1.79-.75a10,10,0,0,1,3.6,5.24c1.39,4.77,1.82,9.76,2.44,14.69A197.1,197.1,0,0,0,308,293C309.15,289.32,310.35,285.45,309.52,281.71Z"/><path class="cls-1" d="M290.48,263.92a6.27,6.27,0,0,0,2.11-4.11,17.06,17.06,0,0,0-.11-4.22,1.38,1.38,0,0,1-1.58,1,3.51,3.51,0,0,1-1.89-1.72l-.36,1.26-.15-.68-.48.6c.71,2,1.4,4.34.3,6.16a7.27,7.27,0,0,1-2.25,2.09A3.82,3.82,0,0,0,290.48,263.92Z"/><path class="cls-1" d="M292.42,255.09l.06.5A.8.8,0,0,0,292.42,255.09Z"/><path class="cls-1" d="M287.19,275.33c-3.5-6.89-7-13.78-10.87-20.48a66.17,66.17,0,0,0-7.64-11.16c-1.34-1.5-5.16-5-7.27-2.68-1.41,1.52.44,4.29-1.29,5.93.4,0,2.35-.19,2.56.07a30.43,30.43,0,0,1,6.71,19.39c1.41-1.1,3.35.43,4.45,1.85a329.77,329.77,0,0,1,19,27.1c-1.14-4.13-1.17-8.51-2.39-12.62A45,45,0,0,0,287.19,275.33Z"/><path class="cls-1" d="M327.93,292.12a43.75,43.75,0,0,0,3.13-13.84,22.7,22.7,0,0,0-3.14-12.52c-.58-.94-3-4.77-4.3-4.46-2.34.56.74,4.64,1.28,5.66,2,3.84,4.11,7.91,4,12.26-.1,3.35-1.51,6.5-2.64,9.66a20.69,20.69,0,0,0-1.41,6.86c-.17.26-.33.52-.52.77a10.28,10.28,0,0,1-6.28,4.14c1-3,1.93-6,2.9-8.95.35-1.07.47-2.52-.15-3.26a2.81,2.81,0,0,0,.31-1.31,6.49,6.49,0,0,0-.85-2.29c-1.34-2.88-.89-6.23-.56-9.39.4-3.9.55-7.92-.59-11.67s-3.79-7.22-7.51-8.47l1,1-1.26-.92,2.34,4.88-.86,1.23c1.29-.67,2.94.31,3.53,1.64a8.58,8.58,0,0,1,.29,4.31,86.15,86.15,0,0,0,1.18,24.25,11.86,11.86,0,0,1-1.44,5.34,5.29,5.29,0,0,1-5,2.71,5.25,5.25,0,0,0-1.93-5.33c-2,2.8-.82,7.15-.52,10.33a114.08,114.08,0,0,0,2.32,14.37,46.68,46.68,0,0,1,2.56-12Q315.37,313,317,319a6.94,6.94,0,0,1,.62-3.23,2.4,2.4,0,0,1,2.76-1.28A3.42,3.42,0,0,1,322,316.5a36.78,36.78,0,0,1,2,21.64c1.34.74,3.12-.16,3.87-1.5a9,9,0,0,0,.71-4.5Q328.27,312.13,327.93,292.12Z"/><path class="cls-1" d="M294,296.35c-.64,1.13,2,5.59,2.41,6.65l6.61,16.14a76.28,76.28,0,0,0-5.12-20.67C297.48,297.35,295.3,294.12,294,296.35Z"/><path class="cls-1" d="M297.45,267.83c-.38.57-.91,1.27-1.56,1.07s-.72-1-.71-1.62c.07-3.74.13-7.49.19-11.23-3,2.16-2.64,5-2.85,8.23-.12,1.88.42,10.8-.86,11.89a33.28,33.28,0,0,0,7.44-9.05C298.58,266.68,297.82,267.26,297.45,267.83Z"/></g></g><path class="cls-14" d="M305.11,255.59a78.68,78.68,0,0,1,2.72,20,10.74,10.74,0,0,0,.36,3.35,3.3,3.3,0,0,0,2.29,2.29"/><path class="cls-14" d="M319.25,262.16c3,6.26-.07,20.24.15,21.23a3.55,3.55,0,0,0,1.69,2.4"/><path class="cls-14" d="M293.47,254.73c-.35,2-.64,4.3-1,6.29a11.58,11.58,0,0,1-4-8"/><path class="cls-14" d="M274.31,308.09l-2.16,1"/><path class="cls-14" d="M274.86,309.82a12.5,12.5,0,0,0,0,5.06"/><path class="cls-14" d="M287.5,291.13l2.39,4.31"/><path class="cls-14" d="M292.09,275.36l2.38-3.36"/><path class="cls-14" d="M325.57,291.13l-.72,2.63"/><path class="cls-14" d="M319.75,283.92q1-3.36,2.11-6.72"/><path class="cls-14" d="M326.79,272a2.7,2.7,0,0,1,3.64,1.13"/><path class="cls-14" d="M312.41,260.53a5.18,5.18,0,0,1,4.82,1.1"/><path class="cls-14" d="M267.88,267.2a7.31,7.31,0,0,1,6.2-2.34"/><path class="cls-14" d="M258.85,248.33a6.74,6.74,0,0,1,5-1.18"/><path class="cls-1" d="M260.71,293.08a12.64,12.64,0,0,0-2.93,3.3Z"/><path class="cls-14" d="M261.67,288.54c1.58-1.13,4.1,1.4,5.55.11a2.31,2.31,0,0,0,.49-2.17,7.46,7.46,0,0,1-.29-2.29"/><path class="cls-14" d="M306.26,281.61a18.07,18.07,0,0,1,1.1,12.81"/><path class="cls-14" d="M317.87,287.77a8.24,8.24,0,0,1-1,5.5"/><path class="cls-15" d="M302.25,384.08l-10.44-32.85c-9.8-10.09-27.8-19.33-29.36-33.3-2-17.95-4.78-17.22-4.78-21.68a53.51,53.51,0,0,0,2.77-6.79,37.4,37.4,0,0,0,1-5.42,3.64,3.64,0,0,1,3.84-3.11,6,6,0,0,1,3.49,1.36,9.36,9.36,0,0,1,3,6.31,27.56,27.56,0,0,1-.53,7.12c1.93,3.63,3,8.14,3.83,12.17.85-3.36,1.44-6.73,2.28-10.09.21-.13.12-.38.32-.52-1.72-3.13-.44-3-3.89-9.95-5.81-11.65-12.18-22.82-17.19-37.59a8.71,8.71,0,0,1-.19-4.24c1.17-4.4,5.66-3.7,7.76-1.33a8.56,8.56,0,0,1,1.35,2.1A114.88,114.88,0,0,0,276.25,264l12,15.84s3.58-3.35,4.07-4.78v0c.47-1.43,0-12.69,0-12.69s-.72,2.17-2.63,2.17c-1.38,0-4.12,1-6.26-1.13a5.19,5.19,0,0,1-.61-6.51l4.47-7a7.51,7.51,0,0,1,7.66-1.45A36.51,36.51,0,0,1,304,254a17.69,17.69,0,0,1,7.66.95c3.6,1.44,7.57,6,7.57,6s4.07,0,6,1.18c.48.3,7.32,9.53,5.58,17.19-1,4.57-1.41,11.13-1.89,12.92l-.12,44.2,8.29,29.31"/><path class="cls-15" d="M305.11,255.59a78.68,78.68,0,0,1,2.72,20,10.74,10.74,0,0,0,.36,3.35,3.3,3.3,0,0,0,2.29,2.29"/><path class="cls-15" d="M319.25,262.16c3,6.26-.07,20.24.15,21.23a3.55,3.55,0,0,0,1.69,2.4"/><path class="cls-15" d="M293.47,254.73c-.35,2-.64,4.3-1,6.29a11.58,11.58,0,0,1-4-8"/><path class="cls-15" d="M274.31,308.09l-2.16,1"/><path class="cls-15" d="M274.86,309.82a12.5,12.5,0,0,0,0,5.06"/><path class="cls-15" d="M287.5,291.13l2.39,4.31"/><path class="cls-15" d="M292.09,275.36l2.38-3.36"/><path class="cls-15" d="M325.57,291.13l-.72,2.63"/><path class="cls-15" d="M319.75,283.92q1-3.36,2.11-6.72"/><path class="cls-15" d="M326.79,272a2.7,2.7,0,0,1,3.64,1.13"/><path class="cls-15" d="M312.41,260.53a5.18,5.18,0,0,1,4.82,1.1"/><path class="cls-15" d="M267.88,267.2a7.31,7.31,0,0,1,6.2-2.34"/><path class="cls-15" d="M258.85,248.33a6.74,6.74,0,0,1,5-1.18"/><path class="cls-15" d="M260.71,293.08a12.64,12.64,0,0,0-2.93,3.3"/><path class="cls-15" d="M261.67,288.54c1.58-1.13,4.1,1.4,5.55.11a2.31,2.31,0,0,0,.49-2.17,7.46,7.46,0,0,1-.29-2.29"/><path class="cls-15" d="M306.26,281.61a18.07,18.07,0,0,1,1.1,12.81"/><path class="cls-15" d="M317.87,287.77a8.24,8.24,0,0,1-1,5.5"/><path class="cls-6" d="M221.19,302.78a6.06,6.06,0,0,1-.09,2.08c-.65,3-2.53,11.78-3.22,16.58-.82,5.86-10.29,24-10.29,24s-8.72,10.84-13.16,16.48c-2.18,2.77-5.63,14-8.56,24.66q-5.55-1.68-11-3.62c-3-1.07-6-2.2-9-3.37A147.09,147.09,0,0,1,150.25,372c1.66-6,2.77-10.67,2.75-10.94-.05-.63,3.56-7.58,3.56-7.58L153.41,312l-1.86-6.31a47.39,47.39,0,0,1-1.83-10A48.34,48.34,0,0,1,151,280.39l5.43-8.06,2.54-.19,7.86-11s4.25-1.28,5.34,1.92-3.54,9.18-3.54,9.18l-1.59,9.87,3.78,9.24,2,.72s.66-16.27.21-19.52l4.18-14.85a70.54,70.54,0,0,0,3.26-7.46c.76-2.49,5.23-5,7.8-.59a6.43,6.43,0,0,1,.4,5.27c-1,3.05-1.92,5.45-1.92,5.45s-.95,12.58-1.25,12.93,1.85,18.73,1.85,18.73l1.64.73.58-17.55L193,258.74s-.28-7.93,5.31-7a4.32,4.32,0,0,1,4.11,2.56c1.49,2.85.07,21.83.07,21.83l1.38,19.62L206,310.91l2.6-10.37s.15-14.86,9.53-16.13c0,0,2.79-.5,3.36,1.44s-1.39,5.9-1.11,9.7C220.62,298.22,221,301.23,221.19,302.78Z"/><path class="cls-1" d="M218.34,284.42c-.43-2-3.24-1.7-3.24-1.7-9.45.56-10.72,15.37-10.72,15.37L201,308.23,199.94,293l.1-19.67s2.86-18.82,1.59-21.78a4.31,4.31,0,0,0-3.91-2.85c-5.5-1.38-5.82,6.54-5.82,6.54l-4.65,16.18-1.9,17.46-1.58-.85s-.75-18.51-.43-18.82,2.22-12.8,2.22-12.8,1.05-2.32,2.33-5.29a6.4,6.4,0,0,0,0-5.28c-2.23-4.55-6.87-2.43-7.83,0a69.81,69.81,0,0,1-3.81,7.19L171,267.5c.2,3.27-1.68,19.45-1.68,19.45l-1.91-.87-3.07-9.5,2.34-9.72s5.07-5.6,4.22-8.89-5.18-2.32-5.18-2.32L157,266h-2.55l-6,7.62a48.23,48.23,0,0,0-1.38,25.28l1.38,6.44v41.56s-4.12,6.65-4.12,7.28c0,.29-1.7,5.55-4.07,12.09,10.37,6.1,19.3,10.82,25.63,13.32,3,1.17,6,2.3,9,3.37,3.8-10.67,8.24-22.09,10.69-24.75,4.86-5.29,14.38-15.44,14.38-15.44s10.81-17.37,12.08-23.15c1-4.74,3.58-13.34,4.46-16.3a5.74,5.74,0,0,0,.24-2.06c-.07-1.56-.22-4.59-.22-7.27C216.5,290.19,218.76,286.38,218.34,284.42Z"/><g class="cls-16"><path class="cls-3" d="M153.44,280.23c1.62-2,4.94-2.79,6.82-1a7.11,7.11,0,0,1,1.71,4,8.61,8.61,0,0,0,1.51,4.12c1,1.12,2.89,1.56,3.9.48.14,2.19.27,4.38.41,6.57A26,26,0,0,0,171.23,281c0-2.28-.39-4.59.14-6.8s2.24-4.37,4.52-4.47c2.52-.12,4.51,2.34,5,4.81s-.08,5-.23,7.54a23,23,0,0,0,2.16,11.22l1.59-3.22c.48,2.15.95,4.3,1.43,6.45q.61-7.1,1.24-14.2a10.37,10.37,0,0,1,.87-3.91,3.48,3.48,0,0,1,3.21-2c1.8.18,2.84,2.1,3.44,3.81,4.51,12.74,2.65,26.74.74,40.12,1.25.22,2.31-1,2.62-2.27a29.12,29.12,0,0,1,.67-3.75c.47-1.18,1.91-2.16,3-1.48,1.58,1,.48,4.07,2.13,4.91a22.86,22.86,0,0,1,4.53-10.93c1.11-1.44,2.77-2.87,4.53-2.41a3.56,3.56,0,0,1,2.37,3c.19,1.35,2.13-4.2,1.79-2.88.76-7.72-.76-8.53,0-16.24.14-1.4,2.39-3.81,1.43-4.83s-3.63-2.39-4.84-1.83-5.13,2.51-5.91,3.59c-4.92,6.78-4.58,16.61-6.11,24.84-1.31-12.56-2.6-25.32-.3-37.74,1.27-6.85,3.61-14,1.4-20.59-1-3-3.69-6-6.82-5.45-2.52.46-4.05,3-5.07,5.35-3.44,7.91-5,16.48-6.48,25L189.9,251a17.39,17.39,0,0,0,.58-6.75c-.41-2.23-1.94-4.43-4.16-4.9s-4.4.85-6.06,2.37c-5.95,5.44-8.16,13.73-10.1,21.55a15.48,15.48,0,0,0,1.16-6.3c-.21-2.14-1.57-4.33-3.67-4.79-2.73-.6-5.2,1.83-6.4,4.35s-1.78,5.41-3.69,7.45c-1.39-1.57-4-1.48-5.74-.32a11.09,11.09,0,0,0-3.65,5,46.54,46.54,0,0,0-3.87,22.48,8.22,8.22,0,0,1,8.21-4.67c-.2-1.71-.4-3.41-.59-5.11"/><path class="cls-3" d="M160,296.5c-.09,1.26-.17,2.53-.26,3.79a1.82,1.82,0,0,1,2.77-.7,4.12,4.12,0,0,1,.63-2.34c.32-.76.35-1.84-.39-2.2s-1.74.58-2.21,1.44c0-.32-.07-.63-.11-.94Z"/><path class="cls-3" d="M174.37,294.24a8.88,8.88,0,0,0-2,4.18,4.28,4.28,0,0,1,1.47-1.07,1.46,1.46,0,0,1,1.66.37c.22.3.3.74.64.92a.81.81,0,0,0,1-.36,2.32,2.32,0,0,0,.25-1.11,6.09,6.09,0,0,0-.12-2.17,2.08,2.08,0,0,0-1.44-1.5,1.29,1.29,0,0,0-1.57,1.1Z"/><path class="cls-3" d="M188.26,297.69a11.32,11.32,0,0,0-2.1,5,4.46,4.46,0,0,0,2-1,3.8,3.8,0,0,1,2-1,1.39,1.39,0,0,1,1.55,1.22,9.43,9.43,0,0,1,.08-2.54,5.36,5.36,0,0,0-.18-2.52,2.11,2.11,0,0,0-1.93-1.41,1.34,1.34,0,0,0-1.18,1.79Z"/><path class="cls-3" d="M150.05,302.7a10,10,0,0,0-1.17,4.71,1.66,1.66,0,0,1,1.47-1.47,3.34,3.34,0,0,1,2.13.57,5.74,5.74,0,0,0,.14-2.29,2,2,0,0,0-1.46-1.61c-.77-.12-1.61.62-1.4,1.36l-.23-.58Z"/><path class="cls-12" d="M153.44,280.23c1.62-2,4.94-2.79,6.82-1a7.11,7.11,0,0,1,1.71,4,8.61,8.61,0,0,0,1.51,4.12c1,1.12,2.89,1.56,3.9.48.14,2.19.27,4.38.41,6.57A26,26,0,0,0,171.23,281c0-2.28-.39-4.59.14-6.8s2.24-4.37,4.52-4.47c2.52-.12,4.51,2.34,5,4.81s-.08,5-.23,7.54a23,23,0,0,0,2.16,11.22l1.59-3.22c.48,2.15.95,4.3,1.43,6.45q.61-7.1,1.24-14.2a10.37,10.37,0,0,1,.87-3.91,3.48,3.48,0,0,1,3.21-2c1.8.18,2.84,2.1,3.44,3.81,4.51,12.74,2.65,26.74.74,40.12,1.25.22,2.31-1,2.62-2.27a29.12,29.12,0,0,1,.67-3.75c.47-1.18,1.91-2.16,3-1.48,1.58,1,.48,4.07,2.13,4.91a22.86,22.86,0,0,1,4.53-10.93c1.11-1.44,2.77-2.87,4.53-2.41a3.56,3.56,0,0,1,2.37,3c.19,1.35,2.13-4.2,1.79-2.88.76-7.72-.76-8.53,0-16.24.14-1.4,2.39-3.81,1.43-4.83s-3.63-2.39-4.84-1.83-5.13,2.51-5.91,3.59c-4.92,6.78-4.58,16.61-6.11,24.84-1.31-12.56-2.6-25.32-.3-37.74,1.27-6.85,3.61-14,1.4-20.59-1-3-3.69-6-6.82-5.45-2.52.46-4.05,3-5.07,5.35-3.44,7.91-5,16.48-6.48,25L189.9,251a17.39,17.39,0,0,0,.58-6.75c-.41-2.23-1.94-4.43-4.16-4.9s-4.4.85-6.06,2.37c-5.95,5.44-8.16,13.73-10.1,21.55a15.48,15.48,0,0,0,1.16-6.3c-.21-2.14-1.57-4.33-3.67-4.79-2.73-.6-5.2,1.83-6.4,4.35s-1.78,5.41-3.69,7.45c-1.39-1.57-4-1.48-5.74-.32a11.09,11.09,0,0,0-3.65,5,46.54,46.54,0,0,0-3.87,22.48,8.22,8.22,0,0,1,8.21-4.67c-.2-1.71-.4-3.41-.59-5.11"/><g class="cls-13"><path class="cls-1" d="M160,296.5c-.09,1.26-.17,2.53-.26,3.79a1.82,1.82,0,0,1,2.77-.7,4.12,4.12,0,0,1,.63-2.34c.32-.76.35-1.84-.39-2.2s-1.74.58-2.21,1.44c0-.32-.07-.63-.11-.94Z"/><path class="cls-1" d="M174.37,294.24a8.88,8.88,0,0,0-2,4.18,4.28,4.28,0,0,1,1.47-1.07,1.46,1.46,0,0,1,1.66.37c.22.3.3.74.64.92a.81.81,0,0,0,1-.36,2.32,2.32,0,0,0,.25-1.11,6.09,6.09,0,0,0-.12-2.17,2.08,2.08,0,0,0-1.44-1.5,1.29,1.29,0,0,0-1.57,1.1Z"/><path class="cls-1" d="M188.26,297.69a11.32,11.32,0,0,0-2.1,5,4.46,4.46,0,0,0,2-1,3.8,3.8,0,0,1,2-1,1.39,1.39,0,0,1,1.55,1.22,9.43,9.43,0,0,1,.08-2.54,5.36,5.36,0,0,0-.18-2.52,2.11,2.11,0,0,0-1.93-1.41,1.34,1.34,0,0,0-1.18,1.79Z"/><path class="cls-1" d="M150.05,302.7a10,10,0,0,0-1.17,4.71,1.66,1.66,0,0,1,1.47-1.47,3.34,3.34,0,0,1,2.13.57,5.74,5.74,0,0,0,.14-2.29,2,2,0,0,0-1.46-1.61c-.77-.12-1.61.62-1.4,1.36l-.23-.58Z"/></g></g><path class="cls-15" d="M140.25,366.28c2.37-6.54,4.07-11.8,4.07-12.09,0-.63,4.12-7.28,4.12-7.28V305.35l-1.38-6.44a48.23,48.23,0,0,1,1.38-25.28l6-7.62H157l8.66-10.36s4.34-1,5.18,2.32-4.22,8.89-4.22,8.89l-2.34,9.72,3.07,9.5,1.91.87s1.88-16.18,1.68-19.45L176.25,253a69.81,69.81,0,0,0,3.81-7.19c1-2.43,5.6-4.55,7.83,0a6.4,6.4,0,0,1,0,5.28c-1.28,3-2.33,5.29-2.33,5.29s-1.9,12.48-2.22,12.8.43,18.82.43,18.82l1.58.85,1.9-17.46,4.65-16.18s.32-7.92,5.82-6.54a4.31,4.31,0,0,1,3.91,2.85c1.27,3-1.59,21.78-1.59,21.78l-.1,19.67L201,308.23l3.39-10.14s1.27-14.81,10.72-15.37c0,0,2.81-.28,3.24,1.7s-1.84,5.77-1.84,9.58c0,2.68.15,5.71.22,7.27a5.74,5.74,0,0,1-.24,2.06c-.88,3-3.42,11.56-4.46,16.3-1.27,5.78-12.08,23.15-12.08,23.15s-9.52,10.15-14.38,15.44c-2.45,2.66-6.89,14.08-10.69,24.75"/><path class="cls-2" d="M169.1,288.52a6,6,0,0,1-1.42,5.69"/><path class="cls-2" d="M153,302.5c1.37-2.13,2.71-5.05,2.34-7.56-.72-4.91-3-10.56-1.95-15.41.64-3.11,1.28-6.21,1.93-9.32"/><path class="cls-15" d="M192.85,256.12a9.7,9.7,0,0,1,5,0c0-.46,0-.93,0-1.39"/><path class="cls-15" d="M179.72,249.87a3.19,3.19,0,0,0,5.05-2.67"/><path class="cls-15" d="M215.86,284.58a6.15,6.15,0,0,0-4.59,6.34l2.45.73"/><path class="cls-2" d="M183.68,285.81c.11,1.67-.1,5.68,0,7.36"/><path class="cls-2" d="M185.52,288.13q-.3,4.13-.61,8.25c0-.35,0-.7.05-1.05"/><path class="cls-2" d="M200.78,311.31a13.72,13.72,0,0,1-.94,9.05"/><path class="cls-15" d="M175.43,296.9c-2.18,2.39-1.86,8.12-.32,11.27"/><path class="cls-15" d="M191.54,300.84a11.23,11.23,0,0,1-2.67,7.33"/><path class="cls-15" d="M159.55,298a10.23,10.23,0,0,0,1.49,7"/><path class="cls-15" d="M150.27,305.5a8.56,8.56,0,0,0,1.54,5.35"/><path class="cls-15" d="M163,259.4a3.18,3.18,0,0,1,3.5.56l1.23-1.63"/><path class="cls-15" d="M173.25,266.74a4.13,4.13,0,0,1,5.28.9"/><path class="cls-15" d="M189.27,271.74a6.74,6.74,0,0,1,5.69.12"/><path class="cls-15" d="M153.62,280.13a5.43,5.43,0,0,1,5.24-2.6"/><path class="cls-15" d="M146.91,289.7a2.84,2.84,0,0,1,2.37-2.66"/></g><g id="Coffee"><circle class="cls-17" cx="404.58" cy="176.39" r="41.45"/><path class="cls-6" d="M451.5,177.47c-8.84,14.5-12,12.54-42.12,27-15.31,7.33-30.1-16.24-20.09-40.43.49-1.18,4.81-7.15,4.81-7.15a22.08,22.08,0,0,1,38.58-9.12,23.84,23.84,0,0,1,21.18-5.06c.35,1,.68,2,1,3,.12.38.25.75.36,1.13.38,1.17.74,2.34,1.07,3.52q1,3.36,1.84,6.76a13.55,13.55,0,0,0-9.84.59c-2.21,1.08-4.06,2.86-6.36,3.74s-5.48.38-6.36-1.92c1.11,4.62,6,3.24,10.61,4.16C453.39,165.08,455.22,171.37,451.5,177.47Z"/><path class="cls-18" d="M437.89,170.33s7.41-1,10.94-.48a6.76,6.76,0,0,1,4.27,2.45,2.37,2.37,0,0,1,.51,1.32l.4,5.8a2.39,2.39,0,0,1-.64,1.8c-1.45,1.5-5.82,4.25-18.76,5.24C416.42,187.85,437.89,170.33,437.89,170.33Z"/><path class="cls-18" d="M432.46,155.34A27.66,27.66,0,0,1,438.54,173c0,6.91-8,30.51-28.49,33.38-21.69,3-39.13-15.52-35.41-37.86C377.22,153,415.05,133.7,432.46,155.34Z"/><ellipse class="cls-1" cx="405.96" cy="171.41" rx="31.47" ry="29.79"/><ellipse class="cls-10" cx="405.9" cy="172.97" rx="25.84" ry="24.45"/><path class="cls-17" d="M437.43,171.41c0-16.45-14.09-29.79-31.47-29.79S374.49,155,374.49,171.41"/><path class="cls-17" d="M429.13,191.57a28.82,28.82,0,0,0,8.3-20.16"/><path class="cls-17" d="M383.92,192.67a32.33,32.33,0,0,0,22,8.53,32.72,32.72,0,0,0,14.61-3.4"/><path class="cls-17" d="M379.38,187.36c.41.61.85,1.21,1.3,1.79"/><path class="cls-17" d="M374.49,171.41a28.45,28.45,0,0,0,3,12.71"/><path class="cls-18" d="M452.15,179.56s-5.61-3.92-14.72-.37"/><path class="cls-18" d="M447.32,182.29a58.59,58.59,0,0,1-11.64,1.83"/><path class="cls-18" d="M450.23,181.05a5.29,5.29,0,0,1-1.4.72"/><path class="cls-1" d="M455.22,146.82c-.11-.38-.24-.75-.36-1.13-1.91-5.92-4.37-12.42-7.36-19.28-.55-1.27-1.13-2.56-1.71-3.86l-.67.06c-2.87.29-5.89.65-8.25,2.28s-3.77,5.07-2.24,7.52,5.43,3.78,4.81,6.55c-6.41,3.61-14.23,3.19-21.36,5a34.78,34.78,0,0,0-11.91,5.62h0a36.71,36.71,0,0,0-3.24,2.72,12.81,12.81,0,0,0-1.32,1.42v0a4.89,4.89,0,0,0-1.13,2.54c-.25,2.67,2.18,4.49,4.77,5.65a.58.58,0,0,1,0,1.08,14.9,14.9,0,0,0-4.67,2.7l0,0a1.16,1.16,0,0,0,1,2l.4,0a7.55,7.55,0,0,1,3,.36,3.63,3.63,0,0,1,2.71,2.86c.16,2-2.15,3.86-5.15,4.09-.73.07-.17.94.9,1.12a16,16,0,0,0,6.4-.52c2.51-.6,5.19-1.47,6.61-3.62a4.52,4.52,0,0,0,.6-3.18,3.22,3.22,0,0,0-2.66-2.92A87.49,87.49,0,0,0,428,163.13h0l1.41-.43a13.16,13.16,0,0,0,3.87-1.69,5.39,5.39,0,0,0,1.69-1.86c1-2-.43-5.19-2.65-4.77,6.45-2.53,13.27-4,19.79-6.34C453.16,147.66,454.2,147.26,455.22,146.82Z"/></g><g id="Monitor"><path class="cls-6" d="M405.78,60.32a127,127,0,0,1-19.9,14C349.47,95.9,308.34,108.8,266.5,115.09s-84.44,6.1-126.6,2.63c-8.28-.68-16.7-1.52-24.31-4.86-6.45-2.84-12.3-7.78-15-14.17,9.13-10.4,17.62-20.92,27.07-30.85q3.38-3.56,6.92-7c2-1.91,4-3.79,6.14-5.63,2.41-2.12,4.89-4.19,7.49-6.19,3.55-2.76,7.29-5.41,11.29-7.94,1-.63,1.95-1.24,2.93-1.84,99.71-62,173.1-41.74,222.06,0Q390,43.95,395.11,49c2.08,2,4.09,4.09,6,6.19.22.22.42.45.63.69Q403.84,58.1,405.78,60.32Z"/><path class="cls-18" d="M409.72,50.38,74.25,51.91l5.07-7.6a13.15,13.15,0,0,1,10.94-5.85H393.82a13.13,13.13,0,0,1,10.24,4.9Z"/><rect class="cls-19" x="195.3" y="100.67" width="86.68" height="86.68" rx="34.15"/><path class="cls-20" d="M211.05,151.33v12.32a7,7,0,0,0,7,7h42.27a7,7,0,0,0,7-7c.05-5.54.35-12.37.35-12.37Z"/><path class="cls-21" d="M365.76,155.45H118.55a6.33,6.33,0,0,1-5.9-4L74.52,53.56a3.91,3.91,0,0,1,3.64-5.33h328a3.91,3.91,0,0,1,3.64,5.33l-38.13,97.86A6.33,6.33,0,0,1,365.76,155.45Z"/><polygon class="cls-10" points="367.59 146.92 116.12 146.92 81.52 54.43 402.03 54.43 367.59 146.92"/><rect class="cls-10" x="211.32" y="155.32" width="56.06" height="3.84"/><path class="cls-3" d="M330.86,143H153.28c-1,0-1.9-.44-2.08-1L125.94,61.71c-.28-.9.51-1.63,1.77-1.63H356.43c1.26,0,2.05.73,1.76,1.63L332.94,142C332.76,142.51,331.83,143,330.86,143Z"/><polygon class="cls-10" points="330.2 141.13 153.94 141.13 132.47 70.62 351.67 70.62 330.2 141.13"/><path class="cls-1" d="M179.24,88.12H145.87c-.83,0-1.37.45-1.21,1a1.82,1.82,0,0,0,1.76,1H179.6c.82,0,1.4-.44,1.3-1S180.06,88.12,179.24,88.12Z"/><path class="cls-1" d="M180.35,94.22H152c-.81,0-1.35.43-1.2,1a1.75,1.75,0,0,0,1.71,1H180.7c.81,0,1.38-.42,1.29-1S181.16,94.22,180.35,94.22Z"/><path class="cls-12" d="M181.43,100.1h-32.2c-.8,0-1.32.41-1.18.92a1.76,1.76,0,0,0,1.7.92h32c.79,0,1.36-.41,1.27-.92S182.23,100.1,181.43,100.1Z"/><path class="cls-1" d="M182.47,105.77H163.56c-.78,0-1.32.4-1.2.9s.85.88,1.63.88H182.8c.78,0,1.34-.39,1.25-.88S183.25,105.77,182.47,105.77Z"/><path class="cls-1" d="M183.48,111.26H152.36c-.76,0-1.28.39-1.14.86a1.69,1.69,0,0,0,1.63.86h30.94c.77,0,1.32-.39,1.23-.86S184.25,111.26,183.48,111.26Z"/><path class="cls-1" d="M184.45,116.56H159.33c-.76,0-1.27.38-1.15.84s.83.83,1.58.83h25c.75,0,1.29-.38,1.21-.83S185.21,116.56,184.45,116.56Z"/><path class="cls-1" d="M185.39,121.69H160.68c-.75,0-1.25.36-1.13.81s.81.8,1.55.8h24.59c.74,0,1.27-.36,1.19-.8S186.14,121.69,185.39,121.69Z"/><path class="cls-1" d="M186.3,126.66h-27c-.73,0-1.23.35-1.11.78s.8.78,1.53.78h26.83c.73,0,1.26-.35,1.18-.78S187,126.66,186.3,126.66Z"/><path class="cls-12" d="M187.19,131.47H169.77c-.72,0-1.22.34-1.12.75s.77.76,1.48.76h17.33c.72,0,1.24-.34,1.16-.76S187.91,131.47,187.19,131.47Z"/><path class="cls-12" d="M178.08,81.81H153.21c-.84,0-1.4.46-1.25,1a1.81,1.81,0,0,0,1.77,1h24.72c.84,0,1.43-.46,1.33-1A1.66,1.66,0,0,0,178.08,81.81Z"/><path class="cls-1" d="M176.87,75.25H142.25c-.85,0-1.41.48-1.24,1.07a1.9,1.9,0,0,0,1.84,1.06h34.41c.85,0,1.46-.47,1.35-1.06A1.69,1.69,0,0,0,176.87,75.25Z"/><path class="cls-1" d="M188,136.12H159.35c-.71,0-1.19.33-1.08.74s.78.73,1.49.73h28.55c.7,0,1.22-.33,1.14-.73S188.75,136.12,188,136.12Z"/><polygon class="cls-12" points="190.96 90.35 197.43 90.35 197.11 87.88 190.59 87.88 190.96 90.35"/><polygon class="cls-12" points="191.86 96.36 198.22 96.36 197.91 93.98 191.5 93.98 191.86 96.36"/><polygon class="cls-12" points="192.73 102.17 198.98 102.17 198.68 99.86 192.39 99.86 192.73 102.17"/><polygon class="cls-12" points="193.57 107.77 199.72 107.77 199.42 105.55 193.24 105.55 193.57 107.77"/><polygon class="cls-12" points="194.39 113.19 200.43 113.19 200.15 111.04 194.06 111.04 194.39 113.19"/><polygon class="cls-12" points="195.18 118.43 201.11 118.43 200.84 116.35 194.86 116.35 195.18 118.43"/><polygon class="cls-12" points="195.94 123.5 201.78 123.5 201.51 121.49 195.63 121.49 195.94 123.5"/><polygon class="cls-12" points="196.67 128.41 202.42 128.41 202.17 126.46 196.38 126.46 196.67 128.41"/><polygon class="cls-12" points="197.39 133.16 203.05 133.16 202.8 131.28 197.1 131.28 197.39 133.16"/><polygon class="cls-12" points="190.02 84.11 196.61 84.11 196.28 81.55 189.63 81.55 190.02 84.11"/><polygon class="cls-12" points="189.05 77.64 195.76 77.64 195.41 74.98 188.65 74.98 189.05 77.64"/><polygon class="cls-12" points="198.08 137.77 203.65 137.77 203.41 135.94 197.81 135.94 198.08 137.77"/><path class="cls-1" d="M232.19,127.44c0-.43.56-.78,1.29-.78H329.3c.73,0,1.22.35,1.1.78a1.62,1.62,0,0,1-1.54.78H233.53C232.8,128.22,232.2,127.87,232.19,127.44Z"/><path class="cls-1" d="M330.27,123.3H277.21c-.74,0-1.3-.36-1.25-.8s.69-.81,1.44-.81h53.33c.74,0,1.24.36,1.11.81S331,123.3,330.27,123.3Z"/><path class="cls-12" d="M264.62,123.3H248.11c-.73,0-1.33-.36-1.32-.8s.61-.81,1.36-.81h16.59c.74,0,1.32.36,1.28.81S265.36,123.3,264.62,123.3Z"/><path class="cls-1" d="M299.06,118.22H224.22c-.75,0-1.38-.37-1.41-.82s.56-.84,1.32-.84h75.24c.75,0,1.3.38,1.21.84S299.82,118.22,299.06,118.22Z"/><path class="cls-12" d="M208.57,116.56h5.34c.75,0,1.4.38,1.44.84s-.54.82-1.29.82h-5.31c-.75,0-1.4-.37-1.45-.82S207.82,116.56,208.57,116.56Z"/><path class="cls-1" d="M309.89,112.12c-.1.47-.8.86-1.57.86H237.8c-.77,0-1.39-.39-1.4-.86s.61-.86,1.37-.86h70.91C309.45,111.26,310,111.65,309.89,112.12Z"/><path class="cls-1" d="M208,111.26h20c.77,0,1.41.39,1.43.86s-.59.86-1.35.86H208.19c-.76,0-1.42-.39-1.48-.86S207.24,111.26,208,111.26Z"/><path class="cls-1" d="M207.42,105.77h76.93c.79,0,1.37.4,1.3.89s-.75.89-1.53.89H207.61c-.77,0-1.45-.39-1.5-.89S206.64,105.77,207.42,105.77Z"/><path class="cls-1" d="M257.37,101.94c-.79,0-1.41-.41-1.39-.92s.68-.92,1.48-.92h40.59c.8,0,1.37.41,1.28.92s-.8.92-1.59.92Z"/><path class="cls-1" d="M206.82,100.1H242c.8,0,1.44.41,1.44.92s-.65.92-1.44.92H207c-.79,0-1.47-.41-1.53-.92S206,100.1,206.82,100.1Z"/><path class="cls-1" d="M338.06,96.12h-96.7c-.8,0-1.46-.42-1.46-1s.65-1,1.46-1h97.25c.81,0,1.34.43,1.19,1A1.8,1.8,0,0,1,338.06,96.12Z"/><path class="cls-1" d="M339.79,90.1H254.7c-.82,0-1.47-.44-1.45-1s.7-1,1.52-1h85.59c.82,0,1.36.45,1.2,1A1.85,1.85,0,0,1,339.79,90.1Z"/><path class="cls-12" d="M341.58,83.86H323.77c-.84,0-1.41-.46-1.28-1a1.77,1.77,0,0,1,1.76-1h17.92c.84,0,1.39.46,1.22,1A1.89,1.89,0,0,1,341.58,83.86Z"/><path class="cls-1" d="M311.3,83.86H245.87c-.83,0-1.51-.46-1.5-1s.68-1,1.52-1h65.82c.84,0,1.42.46,1.31,1A1.72,1.72,0,0,1,311.3,83.86Z"/><path class="cls-1" d="M210.16,131.47h60.43c.72,0,1.27.34,1.22.75s-.65.76-1.37.76H210.32c-.71,0-1.33-.34-1.38-.76S209.44,131.47,210.16,131.47Z"/><path class="cls-1" d="M210.66,136.12H303.5c.7,0,1.21.33,1.12.74s-.73.73-1.43.73H210.82c-.71,0-1.32-.33-1.36-.73S210,136.12,210.66,136.12Z"/><path class="cls-1" d="M308.05,77.38H260.79c-.85,0-1.51-.47-1.48-1.06s.74-1.07,1.6-1.07h47.54c.86,0,1.46.48,1.34,1.07A1.71,1.71,0,0,1,308.05,77.38Z"/><path class="cls-12" d="M247.39,77.38h-43c-.85,0-1.6-.47-1.66-1.06s.57-1.07,1.43-1.07h43.25c.85,0,1.54.48,1.53,1.07S248.24,77.38,247.39,77.38Z"/><path class="cls-12" d="M284,131.47c.72,0,1.26.34,1.2.75s-.69.76-1.41.76h-4.67c-.71,0-1.25-.34-1.2-.76s.67-.75,1.39-.75Z"/><path class="cls-12" d="M226.68,127.44c0,.43-.55.78-1.28.78H219c-.73,0-1.35-.35-1.38-.78s.53-.78,1.26-.78h6.39C226,126.66,226.66,127,226.68,127.44Z"/><path class="cls-12" d="M303.43,106.66c-.09.5-.8.89-1.57.89h-7.44c-.78,0-1.35-.39-1.27-.89s.78-.89,1.56-.89h7.48C303,105.77,303.53,106.17,303.43,106.66Z"/><path class="cls-12" d="M326.64,111.26c.77,0,1.29.39,1.16.86a1.67,1.67,0,0,1-1.61.86h-5.93c-.77,0-1.29-.39-1.18-.86a1.63,1.63,0,0,1,1.6-.86Z"/><path class="cls-12" d="M229.65,96.12c-.8,0-1.47-.42-1.5-1s.62-1,1.43-1h6.31c.81,0,1.47.43,1.48,1s-.64,1-1.44,1Z"/><path class="cls-1" d="M143.71,65.33a2.13,2.13,0,0,1-2.1,3,4.44,4.44,0,0,1-3.94-3,2.13,2.13,0,0,1,2.08-3A4.42,4.42,0,0,1,143.71,65.33Z"/><path class="cls-1" d="M151.85,65.38a2.2,2.2,0,0,1-2.2,3,4.26,4.26,0,0,1-3.84-3,2.21,2.21,0,0,1,2.18-3A4.24,4.24,0,0,1,151.85,65.38Z"/><path class="cls-1" d="M160.08,65.33a2.27,2.27,0,0,1-2.29,3,4.09,4.09,0,0,1-3.75-3,2.28,2.28,0,0,1,2.28-3A4.06,4.06,0,0,1,160.08,65.33Z"/><polygon class="cls-22" points="81.52 54.43 108.47 126.46 140.98 54.43 81.52 54.43"/><polygon class="cls-22" points="126.99 146.92 180.91 54.43 237.37 54.43 158 146.92 126.99 146.92"/><polygon class="cls-22" points="261.7 53.98 177.64 146.92 190.59 146.92 277.66 54.43 261.7 53.98"/><polygon class="cls-22" points="278.3 146.92 370.68 54.43 383.72 54.43 288.47 146.92 278.3 146.92"/></g><g id="Code"><path class="cls-18" d="M153,187.06H132a5,5,0,0,0-5,5v10.26a5,5,0,0,0,5,5h5.51l4.18,9.47,5.89-9.47H153a5,5,0,0,0,5-5V192A5,5,0,0,0,153,187.06Z"/><path class="cls-10" d="M139.56,192.93a1,1,0,0,1,1-1,1,1,0,0,1,1,.92,1,1,0,0,1-2.06,0Zm.22,2.1h1.61v6.86h-1.61Z"/><path class="cls-10" d="M145.26,194.67v.41h1.89v1.28h-1.83v5.53h-1.61v-5.53h-1.13v-1.28h1.13v-.44a2.22,2.22,0,0,1,2.45-2.38,2.56,2.56,0,0,1,1.46.38l-.45,1.2a1.68,1.68,0,0,0-.89-.28C145.61,193.56,145.26,193.93,145.26,194.67Z"/><path class="cls-18" d="M217.26,188.5h-21.1a5,5,0,0,0-5,5v10.26a5,5,0,0,0,5,5h5.52l4.17,9.47,5.89-9.47h5.52a5,5,0,0,0,5-5V193.46A5,5,0,0,0,217.26,188.5Z"/><path class="cls-10" d="M200.6,200.41h-5.39a2.08,2.08,0,0,0,2.23,1.64,2.46,2.46,0,0,0,1.86-.74l.86,1a3.86,3.86,0,0,1-6.55-2.41,3.4,3.4,0,0,1,3.54-3.5,3.34,3.34,0,0,1,3.47,3.54C200.62,200.06,200.61,200.25,200.6,200.41Zm-5.4-1.07h3.89a1.86,1.86,0,0,0-1.94-1.67A1.89,1.89,0,0,0,195.2,199.34Z"/><path class="cls-10" d="M202.16,193.79h1.6v9.53h-1.6Z"/><path class="cls-10" d="M205.09,202.64l.61-1.22a4.62,4.62,0,0,0,2.39.68c1,0,1.44-.28,1.44-.75,0-1.31-4.24-.08-4.24-2.82,0-1.3,1.17-2.14,3-2.14a5.51,5.51,0,0,1,2.57.59l-.62,1.22a3.7,3.7,0,0,0-2-.52c-1,0-1.44.33-1.44.78,0,1.38,4.24.15,4.24,2.83,0,1.29-1.18,2.12-3.11,2.12A5.4,5.4,0,0,1,205.09,202.64Z"/><path class="cls-10" d="M218.91,200.41h-5.39a2.08,2.08,0,0,0,2.23,1.64,2.46,2.46,0,0,0,1.86-.74l.86,1a3.86,3.86,0,0,1-6.55-2.41,3.4,3.4,0,0,1,3.54-3.5,3.34,3.34,0,0,1,3.47,3.54C218.93,200.06,218.92,200.25,218.91,200.41Zm-5.4-1.07h3.89a1.86,1.86,0,0,0-1.94-1.67A1.89,1.89,0,0,0,213.51,199.34Z"/><path class="cls-18" d="M279.52,187.89h-21.1a5,5,0,0,0-5,5v10.26a5,5,0,0,0,5,5h5.52l4.17,9.47,5.89-9.47h5.52a5,5,0,0,0,5-5V192.85A5,5,0,0,0,279.52,187.89Z"/><path class="cls-10" d="M263.26,195.5v.41h1.89v1.28h-1.84v5.53h-1.6v-5.53h-1.13v-1.28h1.13v-.44a2.22,2.22,0,0,1,2.45-2.38,2.55,2.55,0,0,1,1.45.38l-.45,1.2a1.61,1.61,0,0,0-.88-.28C263.61,194.39,263.26,194.76,263.26,195.5Z"/><path class="cls-10" d="M265.56,199.29a3.66,3.66,0,1,1,3.65,3.52A3.45,3.45,0,0,1,265.56,199.29Zm5.69,0a2,2,0,1,0-2,2.14A2,2,0,0,0,271.25,199.29Z"/><path class="cls-10" d="M278.37,195.78v1.53a1.67,1.67,0,0,0-.37,0,1.87,1.87,0,0,0-2,2.12v3.33H274.4v-6.86h1.53v1A2.71,2.71,0,0,1,278.37,195.78Z"/><path class="cls-18" d="M340.88,187.06h-21.1a5,5,0,0,0-5,5v10.26a5,5,0,0,0,5,5h5.52l4.17,9.47,5.89-9.47h5.52a5,5,0,0,0,5-5V192A5,5,0,0,0,340.88,187.06Z"/><path class="cls-10" d="M327.59,194.69h5.92V196h-5.92Zm0,3.11h5.92v1.28h-5.92Z"/><path class="cls-18" d="M185.2,175.18H164.1a5,5,0,0,0-5,5v10.27a5,5,0,0,0,5,5h5.52l4.17,9.47,5.89-9.47h5.52a5,5,0,0,0,5-5V180.14A5,5,0,0,0,185.2,175.18Z"/><path class="cls-10" d="M169.69,179.45h3.07v1.28h-1.47v9.46h1.47v1.28h-3.07Z"/><path class="cls-10" d="M176.74,191.47v-1.28h1.45v-9.46h-1.45v-1.28h3v12Z"/><path class="cls-18" d="M247.92,174.13h-21.1a5,5,0,0,0-5,5v10.27a5,5,0,0,0,5,5h5.52l4.17,9.47,5.9-9.47h5.51a5,5,0,0,0,5-5V179.09A5,5,0,0,0,247.92,174.13Z"/><path class="cls-10" d="M233.08,184.37c.51.17.76.51.76,1.31v2.44a.86.86,0,0,0,.95,1h.27v1.28h-.65a1.9,1.9,0,0,1-2.18-2.09v-2.65a.54.54,0,0,0-.58-.62h-.42v-1.31h.42a.53.53,0,0,0,.58-.61v-2.65a1.9,1.9,0,0,1,2.18-2.09h.65v1.28h-.27a.86.86,0,0,0-.95,1v2.44C233.84,183.86,233.59,184.2,233.08,184.37Z"/><path class="cls-10" d="M242.88,183.71V185h-.44c-.35,0-.57.2-.57.62v2.65a1.91,1.91,0,0,1-2.19,2.09H239V189.1h.27a.87.87,0,0,0,1-1v-2.44c0-.8.23-1.14.74-1.31-.51-.17-.74-.51-.74-1.31v-2.44a.87.87,0,0,0-1-1H239v-1.28h.65a1.91,1.91,0,0,1,2.19,2.09v2.65c0,.42.22.61.57.61Z"/><path class="cls-18" d="M310,172.05H288.88a5,5,0,0,0-5,5v10.27a5,5,0,0,0,5,5h5.51l4.18,9.47,5.89-9.47H310a5,5,0,0,0,5-5V177A5,5,0,0,0,310,172.05Z"/><path class="cls-10" d="M298.59,179.65a1.06,1.06,0,1,1,2.11,0,1.06,1.06,0,1,1-2.11,0Zm2.11,4.9a2.94,2.94,0,0,1-.3,1.1l-.66,1.81h-1l.52-2a1,1,0,0,1-.61-.95,1,1,0,1,1,2.09,0Z"/><path class="cls-18" d="M227.5,351.49h21.09a5,5,0,0,0,5-5V336.27a5,5,0,0,0-5-5h-5.51l-1.61-9.47L233,331.31H227.5a5,5,0,0,0-5,5v10.26A5,5,0,0,0,227.5,351.49Z"/><path class="cls-10" d="M234.91,339.29,230.48,341l4.43,1.66v1.33l-5.92-2.3v-1.38l5.92-2.3Z"/><path class="cls-10" d="M239.59,334.63H241l-4.24,12.1h-1.44Z"/><path class="cls-10" d="M247.25,340.26v1.38l-5.92,2.3v-1.33l4.43-1.66-4.43-1.66V338Z"/><path class="cls-18" d="M93.38,276.75h21.09a5,5,0,0,0,5-5V261.53a5,5,0,0,0-5-5H109l1.2-9.47-11.27,9.47H93.38a5,5,0,0,0-5,5v10.26A5,5,0,0,0,93.38,276.75Z"/><path class="cls-10" d="M99.63,270.24a1,1,0,0,1,1-1,1,1,0,1,1,0,2A1,1,0,0,1,99.63,270.24Zm.09-8.08h1.9l-.32,6H100Z"/><path class="cls-10" d="M103.28,264.46h5.92v1.28h-5.92Zm0,3.11h5.92v1.28h-5.92Z"/></g><g id="Mouse"><path class="cls-1" d="M431.17,265.11a72,72,0,0,1-1,11.87c-2.9,17.3-12,29.93-22.76,29.93a14.39,14.39,0,0,1-2.86-.3c-11.75-2.5-20.86-20.12-20.86-41.5,0-23.08,10.62-31.24,23.72-31.24S431.17,242,431.17,265.11Z"/><g class="cls-23"><path class="cls-3" d="M422.57,265.38c.88,12.37-1.24,24.82-4.81,36.7,8.94-7.33,13.05-18.87,16.77-29.82,2.7-8,5.43-16.15,4.94-24.54s-5-17.1-12.84-20a17.07,17.07,0,0,0-12.13.2c-6.59,2.64-3,4.79-.21,9.52A64.64,64.64,0,0,1,422.57,265.38Z"/><path class="cls-12" d="M422.57,265.38c.88,12.37-1.24,24.82-4.81,36.7,8.94-7.33,13.05-18.87,16.77-29.82,2.7-8,5.43-16.15,4.94-24.54s-5-17.1-12.84-20a17.07,17.07,0,0,0-12.13.2c-6.59,2.64-3,4.79-.21,9.52A64.64,64.64,0,0,1,422.57,265.38Z"/></g><path class="cls-15" d="M431.17,265.11a72,72,0,0,1-1,11.87c-2.9,17.3-12,29.93-22.76,29.93a14.39,14.39,0,0,1-2.86-.3c-11.75-2.5-20.86-20.12-20.86-41.5,0-23.08,10.62-31.24,23.72-31.24S431.17,242,431.17,265.11Z"/><path class="cls-2" d="M420.19,286.35A41.06,41.06,0,0,1,412.4,301"/><path class="cls-15" d="M420.94,283.44c-.12.56-.26,1.13-.41,1.69"/><path class="cls-2" d="M420.88,265.06a40.76,40.76,0,0,1,.47,16.28"/><path class="cls-15" d="M383.71,265.11s27-10.66,47.46,0"/><path class="cls-2" d="M407.44,233.87s2.7,10,3,26.26"/><path class="cls-21" d="M411.2,246c.35,3.11-.19,5.76-1.2,5.92s-2.11-2.23-2.45-5.34.19-5.76,1.2-5.92S410.86,242.92,411.2,246Z"/><path class="cls-15" d="M396.8,314.9H365.18a7.75,7.75,0,0,1-7.69-6.71,5.33,5.33,0,0,1-.09-1.07V232.53a5.63,5.63,0,0,1,.09-1.08,7.74,7.74,0,0,1,7.69-6.7H454.9a7.66,7.66,0,0,1,3.73,1"/></g></g></svg>